<svg width="2560" height="1440" viewBox="0 0 2560 1440" fill="none" xmlns="http://www.w3.org/2000/svg">
<path d="M761.225 384.637V379.012H762.316C762.583 378.733 762.813 378.432 763.007 378.108C763.2 377.784 763.367 377.401 763.509 376.958C763.657 376.509 763.782 375.963 763.884 375.321C763.987 374.674 764.078 373.892 764.157 372.978L764.6 367.796H772.919V379.012H774.93V384.637H772.919V380.887H763.237V384.637H761.225ZM764.6 379.012H770.907V369.671H766.475L766.134 372.978C765.992 374.347 765.816 375.543 765.606 376.566C765.396 377.588 765.061 378.404 764.6 379.012ZM779.066 381.023C778.645 381.023 778.284 380.872 777.983 380.571C777.682 380.27 777.532 379.909 777.532 379.489C777.532 379.068 777.682 378.708 777.983 378.407C778.284 378.105 778.645 377.955 779.066 377.955C779.486 377.955 779.847 378.105 780.148 378.407C780.449 378.708 780.6 379.068 780.6 379.489C780.6 379.767 780.529 380.023 780.387 380.256C780.25 380.489 780.066 380.676 779.833 380.818C779.605 380.955 779.35 381.023 779.066 381.023Z" fill="white"/>
<path d="M808.479 351.796V380.887H804.956V355.489H804.786L797.683 360.205V356.625L804.956 351.796H808.479ZM825.936 381.284C824.27 381.284 822.769 380.953 821.433 380.29C820.098 379.627 819.028 378.718 818.223 377.563C817.418 376.407 816.978 375.091 816.902 373.614H820.311C820.444 374.93 821.04 376.019 822.101 376.881C823.171 377.733 824.45 378.159 825.936 378.159C827.129 378.159 828.19 377.88 829.118 377.321C830.056 376.763 830.789 375.996 831.32 375.02C831.86 374.035 832.129 372.923 832.129 371.682C832.129 370.413 831.85 369.282 831.291 368.287C830.742 367.283 829.985 366.493 829.019 365.915C828.053 365.337 826.95 365.044 825.709 365.034C824.819 365.025 823.905 365.162 822.968 365.446C822.03 365.721 821.258 366.076 820.652 366.512L817.357 366.114L819.118 351.796H834.232V354.921H822.073L821.05 363.5H821.22C821.817 363.027 822.565 362.634 823.465 362.321C824.364 362.009 825.302 361.853 826.277 361.853C828.057 361.853 829.644 362.279 831.036 363.131C832.437 363.974 833.536 365.129 834.331 366.597C835.136 368.065 835.539 369.741 835.539 371.625C835.539 373.481 835.122 375.139 834.289 376.597C833.465 378.046 832.328 379.192 830.879 380.034C829.431 380.868 827.783 381.284 825.936 381.284Z" fill="white"/>
<path d="M357.458 333.375V327.75H358.549C358.816 327.472 359.046 327.171 359.239 326.847C359.432 326.523 359.6 326.139 359.742 325.696C359.89 325.247 360.015 324.702 360.117 324.06C360.219 323.412 360.31 322.631 360.39 321.716L360.833 316.534H369.151V327.75H371.162V333.375H369.151V329.625H359.469V333.375H357.458ZM360.833 327.75H367.14V318.409H362.708L362.367 321.716C362.225 323.085 362.049 324.281 361.839 325.304C361.628 326.327 361.293 327.142 360.833 327.75ZM375.298 329.761C374.878 329.761 374.517 329.611 374.216 329.31C373.915 329.009 373.764 328.648 373.764 328.227C373.764 327.807 373.915 327.446 374.216 327.145C374.517 326.844 374.878 326.693 375.298 326.693C375.718 326.693 376.079 326.844 376.38 327.145C376.682 327.446 376.832 327.807 376.832 328.227C376.832 328.506 376.761 328.761 376.619 328.994C376.483 329.227 376.298 329.415 376.065 329.557C375.838 329.693 375.582 329.761 375.298 329.761Z" fill="white"/>
<path d="M404.711 300.534V329.625H401.189V304.227H401.018L393.916 308.943V305.364L401.189 300.534H404.711ZM413.987 329.625L426.998 303.886V303.659H411.998V300.534H430.635V303.83L417.68 329.625H413.987Z" fill="white"/>
<path d="M162.319 657.479V655.604H162.796C163.188 655.604 163.515 655.527 163.776 655.374C164.038 655.215 164.248 654.939 164.407 654.547C164.572 654.15 164.697 653.599 164.782 652.894C164.873 652.184 164.938 651.28 164.978 650.184L165.217 644.388H173.944V657.479H171.933V646.263H167.126L166.921 650.934C166.876 652.008 166.779 652.954 166.632 653.772C166.489 654.584 166.271 655.266 165.975 655.817C165.686 656.368 165.299 656.783 164.816 657.062C164.333 657.34 163.728 657.479 163.001 657.479H162.319ZM179.646 654.513L185.953 644.388H188.271V657.479H186.259V647.354L179.987 657.479H177.634V644.388H179.646V654.513ZM190.173 646.263V644.388H200.81V646.263H196.514V657.479H194.503V646.263H190.173ZM203.03 657.616C202.61 657.616 202.249 657.465 201.948 657.164C201.646 656.863 201.496 656.502 201.496 656.081C201.496 655.661 201.646 655.3 201.948 654.999C202.249 654.698 202.61 654.547 203.03 654.547C203.45 654.547 203.811 654.698 204.112 654.999C204.413 655.3 204.564 655.661 204.564 656.081C204.564 656.36 204.493 656.616 204.351 656.849C204.215 657.081 204.03 657.269 203.797 657.411C203.57 657.547 203.314 657.616 203.03 657.616Z" fill="white"/>
<path d="M240.632 641.741V644.866H228.643V641.741H240.632ZM221.712 648.388H225.348C225.66 650.434 226.352 652.006 227.422 653.104C228.492 654.203 230.206 654.752 232.564 654.752C234.23 654.752 235.623 654.283 236.74 653.346C237.867 652.408 238.71 651.168 239.268 649.624C239.837 648.081 240.121 646.4 240.121 644.581V641.343C240.121 639.335 239.803 637.569 239.169 636.045C238.544 634.51 237.64 633.317 236.456 632.465C235.282 631.603 233.871 631.172 232.223 631.172C230.784 631.172 229.59 631.428 228.643 631.939C227.696 632.451 226.958 633.185 226.427 634.141C225.897 635.098 225.537 636.248 225.348 637.593H221.712C221.901 635.737 222.408 634.089 223.231 632.65C224.065 631.201 225.225 630.064 226.712 629.241C228.208 628.407 230.045 627.991 232.223 627.991C234.59 627.991 236.636 628.545 238.359 629.652C240.083 630.751 241.413 632.299 242.351 634.297C243.288 636.286 243.757 638.616 243.757 641.286V644.638C243.757 647.309 243.293 649.638 242.365 651.627C241.437 653.606 240.135 655.145 238.459 656.243C236.783 657.332 234.818 657.877 232.564 657.877C230.253 657.877 228.331 657.46 226.797 656.627C225.272 655.784 224.093 654.648 223.26 653.218C222.436 651.778 221.92 650.169 221.712 648.388Z" fill="white"/>
<path d="M849.94 641.592V639.717H850.417C850.809 639.717 851.136 639.641 851.397 639.487C851.658 639.328 851.869 639.053 852.028 638.661C852.192 638.263 852.317 637.712 852.403 637.007C852.494 636.297 852.559 635.394 852.599 634.297L852.837 628.501H861.565V641.592H859.553V630.376H854.746L854.542 635.047C854.496 636.121 854.4 637.067 854.252 637.885C854.11 638.698 853.891 639.379 853.596 639.93C853.306 640.482 852.92 640.896 852.437 641.175C851.954 641.453 851.349 641.592 850.621 641.592H849.94ZM867.266 638.626L873.573 628.501H875.891V641.592H873.88V631.467L867.607 641.592H865.255V628.501H867.266V638.626ZM877.794 630.376V628.501H888.43V630.376H884.135V641.592H882.124V630.376H877.794ZM890.651 641.729C890.23 641.729 889.869 641.578 889.568 641.277C889.267 640.976 889.116 640.615 889.116 640.195C889.116 639.774 889.267 639.413 889.568 639.112C889.869 638.811 890.23 638.661 890.651 638.661C891.071 638.661 891.432 638.811 891.733 639.112C892.034 639.413 892.185 639.774 892.185 640.195C892.185 640.473 892.114 640.729 891.972 640.962C891.835 641.195 891.651 641.382 891.418 641.524C891.19 641.661 890.935 641.729 890.651 641.729Z" fill="white"/>
<path d="M906.274 641.99V638.695H908.092C908.793 638.695 909.38 638.557 909.853 638.283C910.336 638.008 910.734 637.653 911.046 637.217C911.368 636.782 911.633 636.327 911.842 635.854L912.296 634.774L902.24 612.501H906.046L914.058 630.57L921.387 612.501H925.137L915.08 636.876C914.683 637.786 914.228 638.628 913.717 639.405C913.215 640.181 912.528 640.806 911.657 641.28C910.795 641.753 909.626 641.99 908.149 641.99H906.274Z" fill="white"/>
<path d="M1426.24 663.676V661.801H1426.71C1427.1 661.801 1427.43 661.724 1427.69 661.571C1427.95 661.412 1428.16 661.136 1428.32 660.744C1428.49 660.346 1428.61 659.795 1428.7 659.09C1428.79 658.38 1428.85 657.477 1428.89 656.38L1429.13 650.585H1437.86V663.676H1435.85V652.46H1431.04L1430.84 657.13C1430.79 658.204 1430.7 659.15 1430.55 659.968C1430.41 660.781 1430.19 661.463 1429.89 662.014C1429.6 662.565 1429.22 662.98 1428.73 663.258C1428.25 663.537 1427.64 663.676 1426.92 663.676H1426.24ZM1443.56 660.71L1449.87 650.585H1452.19V663.676H1450.18V653.551L1443.9 663.676H1441.55V650.585H1443.56V660.71ZM1454.09 652.46V650.585H1464.73V652.46H1460.43V663.676H1458.42V652.46H1454.09ZM1466.95 663.812C1466.53 663.812 1466.16 663.662 1465.86 663.36C1465.56 663.059 1465.41 662.698 1465.41 662.278C1465.41 661.858 1465.56 661.497 1465.86 661.196C1466.16 660.894 1466.53 660.744 1466.95 660.744C1467.37 660.744 1467.73 660.894 1468.03 661.196C1468.33 661.497 1468.48 661.858 1468.48 662.278C1468.48 662.556 1468.41 662.812 1468.27 663.045C1468.13 663.278 1467.95 663.465 1467.71 663.608C1467.49 663.744 1467.23 663.812 1466.95 663.812Z" fill="white"/>
<path d="M1482.23 663.676H1478.53L1489.22 634.585H1492.85L1503.53 663.676H1499.84L1491.15 639.187H1490.92L1482.23 663.676ZM1483.59 652.312H1498.48V655.437H1483.59V652.312Z" fill="white"/>
<path d="M1620.58 667.663V665.788H1621.06C1621.45 665.788 1621.78 665.711 1622.04 665.558C1622.3 665.399 1622.51 665.123 1622.67 664.731C1622.84 664.333 1622.96 663.782 1623.05 663.078C1623.14 662.367 1623.2 661.464 1623.24 660.367L1623.48 654.572H1632.21V667.663H1630.2V656.447H1625.39L1625.18 661.117C1625.14 662.191 1625.04 663.137 1624.89 663.955C1624.75 664.768 1624.53 665.45 1624.24 666.001C1623.95 666.552 1623.56 666.967 1623.08 667.245C1622.6 667.524 1621.99 667.663 1621.26 667.663H1620.58ZM1637.91 664.697L1644.22 654.572H1646.53V667.663H1644.52V657.538L1638.25 667.663H1635.9V654.572H1637.91V664.697ZM1648.44 656.447V654.572H1659.07V656.447H1654.78V667.663H1652.77V656.447H1648.44ZM1661.29 667.799C1660.87 667.799 1660.51 667.649 1660.21 667.347C1659.91 667.046 1659.76 666.686 1659.76 666.265C1659.76 665.845 1659.91 665.484 1660.21 665.183C1660.51 664.882 1660.87 664.731 1661.29 664.731C1661.71 664.731 1662.07 664.882 1662.38 665.183C1662.68 665.484 1662.83 665.845 1662.83 666.265C1662.83 666.543 1662.76 666.799 1662.61 667.032C1662.48 667.265 1662.29 667.453 1662.06 667.595C1661.83 667.731 1661.58 667.799 1661.29 667.799Z" fill="white"/>
<path d="M1675.38 667.663V638.572H1685.55C1687.58 638.572 1689.25 638.922 1690.57 639.623C1691.88 640.314 1692.86 641.247 1693.51 642.421C1694.15 643.586 1694.47 644.879 1694.47 646.299C1694.47 647.549 1694.25 648.581 1693.8 649.396C1693.37 650.21 1692.79 650.854 1692.07 651.328C1691.36 651.801 1690.59 652.151 1689.76 652.379V652.663C1690.65 652.72 1691.54 653.032 1692.44 653.6C1693.34 654.168 1694.09 654.983 1694.7 656.043C1695.31 657.104 1695.61 658.401 1695.61 659.936C1695.61 661.394 1695.28 662.705 1694.61 663.87C1693.95 665.035 1692.9 665.958 1691.47 666.64C1690.04 667.322 1688.18 667.663 1685.89 667.663H1675.38ZM1678.9 664.538H1685.89C1688.19 664.538 1689.83 664.093 1690.79 663.203C1691.77 662.303 1692.26 661.214 1692.26 659.936C1692.26 658.951 1692.01 658.042 1691.5 657.208C1691 656.365 1690.29 655.693 1689.36 655.191C1688.43 654.68 1687.33 654.424 1686.06 654.424H1678.9V664.538ZM1678.9 651.356H1685.44C1686.5 651.356 1687.45 651.148 1688.31 650.731C1689.17 650.314 1689.85 649.727 1690.35 648.97C1690.86 648.212 1691.12 647.322 1691.12 646.299C1691.12 645.021 1690.67 643.936 1689.78 643.046C1688.89 642.147 1687.48 641.697 1685.55 641.697H1678.9V651.356Z" fill="white"/>
<path d="M1645.02 1111.22V1109.34H1645.5C1645.89 1109.34 1646.21 1109.27 1646.48 1109.11C1646.74 1108.95 1646.95 1108.68 1647.11 1108.29C1647.27 1107.89 1647.4 1107.34 1647.48 1106.63C1647.57 1105.92 1647.64 1105.02 1647.68 1103.92L1647.92 1098.13H1656.64V1111.22H1654.63V1100H1649.83L1649.62 1104.67C1649.58 1105.75 1649.48 1106.69 1649.33 1107.51C1649.19 1108.32 1648.97 1109.01 1648.67 1109.56C1648.39 1110.11 1648 1110.52 1647.52 1110.8C1647.03 1111.08 1646.43 1111.22 1645.7 1111.22H1645.02ZM1662.35 1108.25L1668.65 1098.13H1670.97V1111.22H1668.96V1101.09L1662.69 1111.22H1660.33V1098.13H1662.35V1108.25ZM1672.87 1100V1098.13H1683.51V1100H1679.21V1111.22H1677.2V1100H1672.87ZM1685.73 1111.36C1685.31 1111.36 1684.95 1111.2 1684.65 1110.9C1684.35 1110.6 1684.2 1110.24 1684.2 1109.82C1684.2 1109.4 1684.35 1109.04 1684.65 1108.74C1684.95 1108.44 1685.31 1108.29 1685.73 1108.29C1686.15 1108.29 1686.51 1108.44 1686.81 1108.74C1687.11 1109.04 1687.26 1109.4 1687.26 1109.82C1687.26 1110.1 1687.19 1110.36 1687.05 1110.59C1686.91 1110.82 1686.73 1111.01 1686.5 1111.15C1686.27 1111.29 1686.01 1111.36 1685.73 1111.36Z" fill="white"/>
<path d="M1724.36 1096.67C1724.36 1099.74 1723.81 1102.39 1722.7 1104.63C1721.59 1106.86 1720.07 1108.59 1718.14 1109.8C1716.21 1111.01 1714 1111.62 1711.52 1111.62C1709.04 1111.62 1706.84 1111.01 1704.9 1109.8C1702.97 1108.59 1701.45 1106.86 1700.34 1104.63C1699.24 1102.39 1698.68 1099.74 1698.68 1096.67C1698.68 1093.61 1699.24 1090.95 1700.34 1088.72C1701.45 1086.48 1702.97 1084.76 1704.9 1083.55C1706.84 1082.34 1709.04 1081.73 1711.52 1081.73C1714 1081.73 1716.21 1082.34 1718.14 1083.55C1720.07 1084.76 1721.59 1086.48 1722.7 1088.72C1723.81 1090.95 1724.36 1093.61 1724.36 1096.67ZM1720.95 1096.67C1720.95 1094.15 1720.53 1092.03 1719.69 1090.3C1718.86 1088.56 1717.73 1087.25 1716.3 1086.36C1714.88 1085.47 1713.28 1085.03 1711.52 1085.03C1709.76 1085.03 1708.17 1085.47 1706.74 1086.36C1705.32 1087.25 1704.18 1088.56 1703.34 1090.3C1702.51 1092.03 1702.09 1094.15 1702.09 1096.67C1702.09 1099.19 1702.51 1101.32 1703.34 1103.05C1704.18 1104.78 1705.32 1106.1 1706.74 1106.99C1708.17 1107.88 1709.76 1108.32 1711.52 1108.32C1713.28 1108.32 1714.88 1107.88 1716.3 1106.99C1717.73 1106.1 1718.86 1104.78 1719.69 1103.05C1720.53 1101.32 1720.95 1099.19 1720.95 1096.67Z" fill="white"/>
<path d="M1153.36 992.767V990.892H1153.84C1154.23 990.892 1154.56 990.815 1154.82 990.662C1155.08 990.503 1155.29 990.227 1155.45 989.835C1155.62 989.437 1155.74 988.886 1155.83 988.182C1155.92 987.471 1155.98 986.568 1156.02 985.471L1156.26 979.676H1164.99V992.767H1162.98V981.551H1158.17L1157.96 986.221C1157.92 987.295 1157.82 988.241 1157.67 989.06C1157.53 989.872 1157.31 990.554 1157.02 991.105C1156.73 991.656 1156.34 992.071 1155.86 992.349C1155.38 992.628 1154.77 992.767 1154.04 992.767H1153.36ZM1170.69 989.801L1177 979.676H1179.31V992.767H1177.3V982.642L1171.03 992.767H1168.68V979.676H1170.69V989.801ZM1181.22 981.551V979.676H1191.85V981.551H1187.56V992.767H1185.55V981.551H1181.22ZM1194.07 992.903C1193.65 992.903 1193.29 992.753 1192.99 992.452C1192.69 992.15 1192.54 991.79 1192.54 991.369C1192.54 990.949 1192.69 990.588 1192.99 990.287C1193.29 989.986 1193.65 989.835 1194.07 989.835C1194.49 989.835 1194.85 989.986 1195.16 990.287C1195.46 990.588 1195.61 990.949 1195.61 991.369C1195.61 991.648 1195.54 991.903 1195.39 992.136C1195.26 992.369 1195.07 992.557 1194.84 992.699C1194.61 992.835 1194.36 992.903 1194.07 992.903Z" fill="white"/>
<path d="M1231.57 972.767H1228.05C1227.84 971.754 1227.48 970.863 1226.95 970.096C1226.44 969.329 1225.82 968.685 1225.08 968.165C1224.35 967.634 1223.54 967.237 1222.65 966.971C1221.76 966.706 1220.83 966.574 1219.87 966.574C1218.11 966.574 1216.51 967.019 1215.08 967.909C1213.66 968.799 1212.53 970.111 1211.68 971.844C1210.85 973.577 1210.43 975.703 1210.43 978.221C1210.43 980.74 1210.85 982.866 1211.68 984.599C1212.53 986.332 1213.66 987.644 1215.08 988.534C1216.51 989.424 1218.11 989.869 1219.87 989.869C1220.83 989.869 1221.76 989.737 1222.65 989.471C1223.54 989.206 1224.35 988.813 1225.08 988.292C1225.82 987.762 1226.44 987.113 1226.95 986.346C1227.48 985.57 1227.84 984.68 1228.05 983.676H1231.57C1231.31 985.163 1230.82 986.493 1230.12 987.667C1229.42 988.842 1228.55 989.841 1227.51 990.665C1226.47 991.479 1225.3 992.099 1224 992.525C1222.71 992.952 1221.33 993.165 1219.87 993.165C1217.39 993.165 1215.18 992.559 1213.25 991.346C1211.32 990.134 1209.8 988.411 1208.69 986.176C1207.58 983.941 1207.03 981.29 1207.03 978.221C1207.03 975.153 1207.58 972.502 1208.69 970.267C1209.8 968.032 1211.32 966.309 1213.25 965.096C1215.18 963.884 1217.39 963.278 1219.87 963.278C1221.33 963.278 1222.71 963.491 1224 963.917C1225.3 964.344 1226.47 964.969 1227.51 965.792C1228.55 966.607 1229.42 967.601 1230.12 968.775C1230.82 969.94 1231.31 971.271 1231.57 972.767Z" fill="white"/>
<path d="M2083.29 682.76V680.885H2083.76C2084.16 680.885 2084.48 680.809 2084.74 680.655C2085 680.496 2085.21 680.221 2085.37 679.829C2085.54 679.431 2085.66 678.88 2085.75 678.175C2085.84 677.465 2085.91 676.562 2085.94 675.465L2086.18 669.67H2094.91V682.76H2092.9V671.545H2088.09L2087.89 676.215C2087.84 677.289 2087.75 678.235 2087.6 679.053C2087.46 679.866 2087.24 680.547 2086.94 681.099C2086.65 681.65 2086.27 682.064 2085.78 682.343C2085.3 682.621 2084.69 682.76 2083.97 682.76H2083.29ZM2100.61 679.795L2106.92 669.67H2109.24V682.76H2107.23V672.635L2100.95 682.76H2098.6V669.67H2100.61V679.795ZM2111.14 671.545V669.67H2121.78V671.545H2117.48V682.76H2115.47V671.545H2111.14ZM2124 682.897C2123.58 682.897 2123.22 682.746 2122.91 682.445C2122.61 682.144 2122.46 681.783 2122.46 681.363C2122.46 680.942 2122.61 680.581 2122.91 680.28C2123.22 679.979 2123.58 679.829 2124 679.829C2124.42 679.829 2124.78 679.979 2125.08 680.28C2125.38 680.581 2125.53 680.942 2125.53 681.363C2125.53 681.641 2125.46 681.897 2125.32 682.13C2125.18 682.363 2125 682.55 2124.76 682.692C2124.54 682.829 2124.28 682.897 2124 682.897Z" fill="white"/>
<path d="M2135.59 689.806V679.635H2137.46C2138.1 679.048 2138.71 678.22 2139.28 677.15C2139.86 676.07 2140.34 674.631 2140.74 672.831C2141.15 671.023 2141.42 668.726 2141.55 665.942L2142.18 653.67H2159.45V679.635H2162.8V689.749H2159.45V682.76H2138.94V689.806H2135.59ZM2141.66 679.635H2156.1V656.795H2145.36L2144.9 665.942C2144.79 668.063 2144.59 669.986 2144.31 671.709C2144.02 673.423 2143.66 674.943 2143.21 676.269C2142.77 677.585 2142.25 678.707 2141.66 679.635Z" fill="white"/>
<path d="M871.979 957.607V955.732H872.456C872.848 955.732 873.175 955.655 873.437 955.502C873.698 955.343 873.908 955.067 874.067 954.675C874.232 954.277 874.357 953.726 874.442 953.022C874.533 952.311 874.598 951.408 874.638 950.311L874.877 944.516H883.604V957.607H881.593V946.391H876.786L876.581 951.061C876.536 952.135 876.439 953.081 876.292 953.899C876.15 954.712 875.931 955.394 875.635 955.945C875.346 956.496 874.959 956.911 874.476 957.189C873.993 957.468 873.388 957.607 872.661 957.607H871.979ZM889.306 954.641L895.613 944.516H897.931V957.607H895.92V947.482L889.647 957.607H887.295V944.516H889.306V954.641ZM899.834 946.391V944.516H910.47V946.391H906.174V957.607H904.163V946.391H899.834ZM912.69 957.743C912.27 957.743 911.909 957.593 911.608 957.291C911.307 956.99 911.156 956.629 911.156 956.209C911.156 955.789 911.307 955.428 911.608 955.127C911.909 954.826 912.27 954.675 912.69 954.675C913.111 954.675 913.471 954.826 913.773 955.127C914.074 955.428 914.224 955.789 914.224 956.209C914.224 956.487 914.153 956.743 914.011 956.976C913.875 957.209 913.69 957.397 913.457 957.539C913.23 957.675 912.974 957.743 912.69 957.743Z" fill="white"/>
<path d="M934.213 928.516L941.713 940.618H941.94L949.44 928.516H953.588L944.44 943.061L953.588 957.607H949.44L941.94 945.732H941.713L934.213 957.607H930.065L939.44 943.061L930.065 928.516H934.213Z" fill="white"/>
<path d="M593.058 859.333V857.458H593.535C593.927 857.458 594.254 857.382 594.515 857.228C594.777 857.069 594.987 856.794 595.146 856.401C595.311 856.004 595.436 855.453 595.521 854.748C595.612 854.038 595.677 853.134 595.717 852.038L595.956 846.242H604.683V859.333H602.671V848.117H597.865L597.66 852.788C597.615 853.862 597.518 854.808 597.37 855.626C597.228 856.438 597.009 857.12 596.714 857.671C596.424 858.223 596.038 858.637 595.555 858.916C595.072 859.194 594.467 859.333 593.74 859.333H593.058ZM610.384 856.367L616.691 846.242H619.009V859.333H616.998V849.208L610.725 859.333H608.373V846.242H610.384V856.367ZM620.912 848.117V846.242H631.549V848.117H627.253V859.333H625.242V848.117H620.912ZM633.769 859.47C633.348 859.47 632.987 859.319 632.686 859.018C632.385 858.717 632.235 858.356 632.235 857.936C632.235 857.515 632.385 857.154 632.686 856.853C632.987 856.552 633.348 856.401 633.769 856.401C634.189 856.401 634.55 856.552 634.851 856.853C635.152 857.154 635.303 857.515 635.303 857.936C635.303 858.214 635.232 858.47 635.09 858.703C634.953 858.936 634.769 859.123 634.536 859.265C634.309 859.401 634.053 859.47 633.769 859.47Z" fill="white"/>
<path d="M678.304 855.981L677.906 866.208H674.269V859.333H672.224V855.981H678.304ZM653.588 859.333V830.242H656.94V856.095H671.94V830.242H675.292V859.333H653.588Z" fill="white"/>
<path d="M321.855 584.869V582.994H322.332C322.724 582.994 323.051 582.917 323.312 582.764C323.573 582.605 323.784 582.329 323.943 581.937C324.108 581.54 324.233 580.989 324.318 580.284C324.409 579.574 324.474 578.67 324.514 577.574L324.752 571.778H333.48V584.869H331.468V573.653H326.661L326.457 578.324C326.411 579.398 326.315 580.344 326.167 581.162C326.025 581.974 325.806 582.656 325.511 583.207C325.221 583.758 324.835 584.173 324.352 584.452C323.869 584.73 323.264 584.869 322.536 584.869H321.855ZM339.181 581.903L345.488 571.778H347.806V584.869H345.795V574.744L339.522 584.869H337.17V571.778H339.181V581.903ZM349.709 573.653V571.778H360.345V573.653H356.05V584.869H354.039V573.653H349.709ZM362.566 585.006C362.145 585.006 361.784 584.855 361.483 584.554C361.182 584.253 361.032 583.892 361.032 583.471C361.032 583.051 361.182 582.69 361.483 582.389C361.784 582.088 362.145 581.937 362.566 581.937C362.986 581.937 363.347 582.088 363.648 582.389C363.949 582.69 364.1 583.051 364.1 583.471C364.1 583.75 364.029 584.006 363.887 584.239C363.75 584.471 363.566 584.659 363.333 584.801C363.105 584.937 362.85 585.006 362.566 585.006Z" fill="white"/>
<path d="M380.177 555.778V584.869H376.654V555.778H380.177ZM386.526 569.017V572.142H377.62V569.017H386.526ZM411.2 570.324C411.2 573.392 410.646 576.043 409.538 578.278C408.43 580.513 406.91 582.237 404.978 583.449C403.046 584.661 400.84 585.267 398.359 585.267C395.878 585.267 393.671 584.661 391.739 583.449C389.807 582.237 388.288 580.513 387.18 578.278C386.072 576.043 385.518 573.392 385.518 570.324C385.518 567.256 386.072 564.604 387.18 562.369C388.288 560.134 389.807 558.411 391.739 557.199C393.671 555.987 395.878 555.381 398.359 555.381C400.84 555.381 403.046 555.987 404.978 557.199C406.91 558.411 408.43 560.134 409.538 562.369C410.646 564.604 411.2 567.256 411.2 570.324ZM407.79 570.324C407.79 567.805 407.369 565.679 406.526 563.946C405.693 562.213 404.561 560.901 403.131 560.011C401.711 559.121 400.12 558.676 398.359 558.676C396.597 558.676 395.002 559.121 393.572 560.011C392.151 560.901 391.02 562.213 390.177 563.946C389.343 565.679 388.927 567.805 388.927 570.324C388.927 572.843 389.343 574.969 390.177 576.702C391.02 578.435 392.151 579.746 393.572 580.636C395.002 581.526 396.597 581.971 398.359 581.971C400.12 581.971 401.711 581.526 403.131 580.636C404.561 579.746 405.693 578.435 406.526 576.702C407.369 574.969 407.79 572.843 407.79 570.324Z" fill="white"/>
<path d="M499.447 1012.79V1010.97H499.911C500.292 1010.97 500.61 1010.89 500.864 1010.74C501.118 1010.59 501.322 1010.32 501.477 1009.94C501.637 1009.55 501.758 1009.02 501.841 1008.33C501.93 1007.64 501.993 1006.76 502.032 1005.7L502.264 1000.06H510.747V1012.79H508.792V1001.89H504.119L503.921 1006.43C503.876 1007.47 503.783 1008.39 503.639 1009.19C503.501 1009.98 503.288 1010.64 503.001 1011.17C502.719 1011.71 502.344 1012.11 501.874 1012.38C501.405 1012.65 500.817 1012.79 500.11 1012.79H499.447ZM516.289 1009.91L522.42 1000.06H524.673V1012.79H522.718V1002.95L516.621 1012.79H514.334V1000.06H516.289V1009.91ZM526.523 1001.89V1000.06H536.862V1001.89H532.687V1012.79H530.732V1001.89H526.523ZM539.02 1012.92C538.612 1012.92 538.261 1012.78 537.968 1012.48C537.675 1012.19 537.529 1011.84 537.529 1011.43C537.529 1011.02 537.675 1010.67 537.968 1010.38C538.261 1010.09 538.612 1009.94 539.02 1009.94C539.429 1009.94 539.78 1010.09 540.072 1010.38C540.365 1010.67 540.511 1011.02 540.511 1011.43C540.511 1011.7 540.442 1011.95 540.304 1012.18C540.172 1012.4 539.992 1012.58 539.766 1012.72C539.545 1012.86 539.296 1012.92 539.02 1012.92Z" fill="white"/>
<path d="M559.445 1013.24H555.855L566.238 984.958H569.773L580.156 1013.24H576.566L568.116 989.432H567.895L559.445 1013.24ZM560.771 1002.19H575.241V1005.23H560.771V1002.19ZM584.561 984.958H587.985V1010.09H597.927V984.958H601.351V1010.09H611.292V984.958H614.717V1013.24H584.561V984.958Z" fill="white"/>
</svg>
