<?xml version="1.0" encoding="UTF-8"?>
<!DOCTYPE svg PUBLIC "-//W3C//DTD SVG 1.1//EN" "http://www.w3.org/Graphics/SVG/1.1/DTD/svg11.dtd">
<svg xmlns="http://www.w3.org/2000/svg" version="1.1" width="1298px" height="660px" style="shape-rendering:geometricPrecision; text-rendering:geometricPrecision; image-rendering:optimizeQuality; fill-rule:evenodd; clip-rule:evenodd" xmlns:xlink="http://www.w3.org/1999/xlink">
<g><path style="opacity:0.997" fill="#039fe2" d="M 267.5,9.5 C 266.527,19.0838 266.194,28.7504 266.5,38.5C 258.167,38.5 249.833,38.5 241.5,38.5C 240.638,63.8227 240.304,89.156 240.5,114.5C 242.167,114.5 243.833,114.5 245.5,114.5C 247.833,114.5 250.167,114.5 252.5,114.5C 252.517,116.565 252.85,118.565 253.5,120.5C 251.53,128.769 250.864,137.435 251.5,146.5C 216.5,146.5 181.5,146.5 146.5,146.5C 146.918,108.497 147.584,70.4967 148.5,32.5C 168.12,31.5123 187.787,31.179 207.5,31.5C 207.5,23.1667 207.5,14.8333 207.5,6.5C 227.5,6.5 247.5,6.5 267.5,6.5C 267.5,7.5 267.5,8.5 267.5,9.5 Z"/></g>
<g><path style="opacity:1" fill="#04468a" d="M 267.5,9.5 C 272.206,28.7621 273.706,48.4288 272,68.5C 263.585,69.4832 255.085,69.8166 246.5,69.5C 246.562,84.5113 246.229,99.5113 245.5,114.5C 243.833,114.5 242.167,114.5 240.5,114.5C 240.304,89.156 240.638,63.8227 241.5,38.5C 249.833,38.5 258.167,38.5 266.5,38.5C 266.194,28.7504 266.527,19.0838 267.5,9.5 Z"/></g>
<g><path style="opacity:1" fill="#e7f7fc" d="M 190.5,76.5 C 191.833,76.5 193.167,76.5 194.5,76.5C 194.5,80.5 194.5,84.5 194.5,88.5C 195.675,88.281 196.675,88.6143 197.5,89.5C 194.5,90.8333 191.5,90.8333 188.5,89.5C 189.325,88.6143 190.325,88.281 191.5,88.5C 191.813,85.7531 191.48,83.0865 190.5,80.5C 189.313,81.8938 188.646,81.7271 188.5,80C 188.978,78.6974 189.645,77.5307 190.5,76.5 Z"/></g>
<g><path style="opacity:1" fill="#dff2fa" d="M 198.5,76.5 C 201.833,76.5 205.167,76.5 208.5,76.5C 207.178,81.1514 205.845,85.8181 204.5,90.5C 203.5,90.5 202.5,90.5 201.5,90.5C 202.409,87.2113 203.409,83.878 204.5,80.5C 202.604,79.5344 200.604,79.2011 198.5,79.5C 198.5,78.5 198.5,77.5 198.5,76.5 Z"/></g>
<g><path style="opacity:1" fill="#029ee2" d="M 515.5,87.5 C 515.5,105.167 515.5,122.833 515.5,140.5C 434.5,140.5 353.5,140.5 272.5,140.5C 272.5,132.167 272.5,123.833 272.5,115.5C 278.5,115.5 284.5,115.5 290.5,115.5C 290.5,106.167 290.5,96.8333 290.5,87.5C 365.5,87.5 440.5,87.5 515.5,87.5 Z"/></g>
<g><path style="opacity:1" fill="#c0e5f7" d="M 172.5,84.5 C 174.167,84.5 175.833,84.5 177.5,84.5C 177.75,87.214 177.917,89.8806 178,92.5C 176.084,89.967 174.084,89.967 172,92.5C 172.083,89.8806 172.25,87.214 172.5,84.5 Z"/></g>
<g><path style="opacity:1" fill="#dfeff9" d="M 398.5,102.5 C 399.833,102.5 401.167,102.5 402.5,102.5C 402.5,106.5 402.5,110.5 402.5,114.5C 403.5,114.5 404.5,114.5 405.5,114.5C 405.5,115.5 405.5,116.5 405.5,117.5C 402.167,117.5 398.833,117.5 395.5,117.5C 395.5,116.5 395.5,115.5 395.5,114.5C 396.833,114.5 398.167,114.5 399.5,114.5C 399.813,111.753 399.48,109.086 398.5,106.5C 397.313,107.894 396.646,107.727 396.5,106C 396.978,104.697 397.645,103.531 398.5,102.5 Z"/></g>
<g><path style="opacity:1" fill="#e1f3fa" d="M 406.5,102.5 C 409.833,102.5 413.167,102.5 416.5,102.5C 416.5,103.5 416.5,104.5 416.5,105.5C 414.076,105.192 411.743,105.526 409.5,106.5C 416.576,107.518 418.242,111.018 414.5,117C 411.107,118.168 408.441,117.334 406.5,114.5C 408.718,113.943 411.051,113.943 413.5,114.5C 413.5,112.833 413.5,111.167 413.5,109.5C 411.194,109.993 408.861,110.326 406.5,110.5C 406.5,107.833 406.5,105.167 406.5,102.5 Z"/></g>
<g><path style="opacity:1" fill="#c1e7f7" d="M 379.5,110.5 C 381.167,110.5 382.833,110.5 384.5,110.5C 384.75,113.214 384.917,115.881 385,118.5C 383,117.167 381,117.167 379,118.5C 379.083,115.881 379.25,113.214 379.5,110.5 Z"/></g>
<g><path style="opacity:0.999" fill="#024589" d="M 515.5,87.5 C 516.765,88.5145 517.431,90.0145 517.5,92C 521.698,118.35 522.698,144.85 520.5,171.5C 439.833,171.667 359.166,171.5 278.5,171C 276.442,160.875 274.442,150.708 272.5,140.5C 353.5,140.5 434.5,140.5 515.5,140.5C 515.5,122.833 515.5,105.167 515.5,87.5 Z"/></g>
<g><path style="opacity:0.996" fill="#014489" d="M 253.5,120.5 C 257.051,138.642 258.384,156.975 257.5,175.5C 256.833,175.5 256.5,175.833 256.5,176.5C 236.766,177.147 217.266,176.48 198,174.5C 182.742,176.475 167.242,177.142 151.5,176.5C 151.5,176.167 151.5,175.833 151.5,175.5C 149.187,165.937 147.521,156.271 146.5,146.5C 181.5,146.5 216.5,146.5 251.5,146.5C 250.864,137.435 251.53,128.769 253.5,120.5 Z"/></g>
<g><path style="opacity:0.781" fill="#aedef7" d="M 257.5,175.5 C 557.834,175.333 858.167,175.5 1158.5,176C 1159.83,185.598 1159.83,195.098 1158.5,204.5C 1151.09,195.588 1143.09,187.088 1134.5,179C 1088.2,177.536 1041.86,177.036 995.5,177.5C 932.5,177.5 869.5,177.5 806.5,177.5C 623.167,177.5 439.833,177.5 256.5,177.5C 256.5,177.167 256.5,176.833 256.5,176.5C 256.5,175.833 256.833,175.5 257.5,175.5 Z"/></g>
<g><path style="opacity:0.004" fill="#fefffe" d="M 59.5,176.5 C 60.7899,177.058 61.6232,178.058 62,179.5C 64.1452,187.7 63.9785,195.7 61.5,203.5C 60.1667,203.5 58.8333,203.5 57.5,203.5C 58.3321,197.516 58.4988,191.516 58,185.5C 57.9411,182.178 56.7744,179.344 54.5,177C 56.1341,176.506 57.8008,176.34 59.5,176.5 Z"/></g>
<g><path style="opacity:0.008" fill="#87fffe" d="M 59.5,176.5 C 60.9187,175.549 62.5853,175.216 64.5,175.5C 64.4088,177.698 65.0755,178.031 66.5,176.5C 69.922,185.709 70.2553,195.042 67.5,204.5C 65.2646,204.795 63.2646,204.461 61.5,203.5C 63.9785,195.7 64.1452,187.7 62,179.5C 61.6232,178.058 60.7899,177.058 59.5,176.5 Z"/></g>
<g><path style="opacity:0.024" fill="#b0ceff" d="M 66.5,176.5 C 68.1667,176.5 69.8333,176.5 71.5,176.5C 72.0271,179.231 72.8604,181.898 74,184.5C 74.6095,191.189 74.4428,197.856 73.5,204.5C 71.5,204.5 69.5,204.5 67.5,204.5C 70.2553,195.042 69.922,185.709 66.5,176.5 Z"/></g>
<g><path style="opacity:1" fill="#316ba3" d="M 256.5,176.5 C 256.5,176.833 256.5,177.167 256.5,177.5C 221.5,177.5 186.5,177.5 151.5,177.5C 151.5,177.167 151.5,176.833 151.5,176.5C 167.242,177.142 182.742,176.475 198,174.5C 217.266,176.48 236.766,177.147 256.5,176.5 Z"/></g>
<g><path style="opacity:0.996" fill="#dcf0fb" d="M 806.5,177.5 C 869.5,177.5 932.5,177.5 995.5,177.5C 1014,178.332 1032.66,178.832 1051.5,179C 1060.04,187.368 1068.37,195.868 1076.5,204.5C 1035.5,204.5 994.5,204.5 953.5,204.5C 945.369,195.868 937.036,187.368 928.5,179C 887.665,178.833 846.998,178.333 806.5,177.5 Z"/></g>
<g><path style="opacity:0.995" fill="#c5e7f9" d="M 995.5,177.5 C 1041.86,177.036 1088.2,177.536 1134.5,179C 1143.09,187.088 1151.09,195.588 1158.5,204.5C 1131.17,204.5 1103.83,204.5 1076.5,204.5C 1068.37,195.868 1060.04,187.368 1051.5,179C 1032.66,178.832 1014,178.332 995.5,177.5 Z"/></g>
<g><path style="opacity:0.154" fill="#b8e2f7" d="M 64.5,175.5 C 93.5,175.5 122.5,175.5 151.5,175.5C 151.5,175.833 151.5,176.167 151.5,176.5C 151.5,176.833 151.5,177.167 151.5,177.5C 147.5,177.5 143.5,177.5 139.5,177.5C 124.483,177.445 109.483,177.945 94.5,179C 95.1378,182.596 95.8045,186.429 96.5,190.5C 98.1238,190.36 99.2904,191.027 100,192.5C 100.333,191.5 100.667,190.5 101,189.5C 101.333,191.167 101.667,192.833 102,194.5C 103.675,195.595 104.842,197.095 105.5,199C 106.449,199.617 107.282,199.451 108,198.5C 108.236,200.811 109.069,202.811 110.5,204.5C 98.1667,204.5 85.8333,204.5 73.5,204.5C 74.4428,197.856 74.6095,191.189 74,184.5C 72.8604,181.898 72.0271,179.231 71.5,176.5C 69.8333,176.5 68.1667,176.5 66.5,176.5C 65.0755,178.031 64.4088,177.698 64.5,175.5 Z"/></g>
<g><path style="opacity:0.788" fill="#d4edfa" d="M 139.5,177.5 C 136.972,178.166 134.306,178.832 131.5,179.5C 132.815,181.316 134.315,182.983 136,184.5C 136.333,183.5 136.667,182.5 137,181.5C 137.333,183.167 137.667,184.833 138,186.5C 141.027,189.527 144.027,192.527 147,195.5C 147.419,194.328 148.085,193.328 149,192.5C 150.202,194.553 150.536,196.553 150,198.5C 152.04,200.37 153.873,202.37 155.5,204.5C 140.5,204.5 125.5,204.5 110.5,204.5C 109.069,202.811 108.236,200.811 108,198.5C 107.282,199.451 106.449,199.617 105.5,199C 104.842,197.095 103.675,195.595 102,194.5C 101.667,192.833 101.333,191.167 101,189.5C 100.667,190.5 100.333,191.5 100,192.5C 99.2904,191.027 98.1238,190.36 96.5,190.5C 95.8045,186.429 95.1378,182.596 94.5,179C 109.483,177.945 124.483,177.445 139.5,177.5 Z"/></g>
<g><path style="opacity:0.982" fill="#ebf5fa" d="M 139.5,177.5 C 143.5,177.5 147.5,177.5 151.5,177.5C 186.5,177.5 221.5,177.5 256.5,177.5C 439.833,177.5 623.167,177.5 806.5,177.5C 846.998,178.333 887.665,178.833 928.5,179C 937.036,187.368 945.369,195.868 953.5,204.5C 885.167,204.5 816.833,204.5 748.5,204.5C 746.452,201.785 744.118,199.452 741.5,197.5C 741.5,196.5 741.5,195.5 741.5,194.5C 740.167,194.5 738.833,194.5 737.5,194.5C 736.505,189.458 738.505,187.125 743.5,187.5C 743.5,186.5 743.5,185.5 743.5,184.5C 736.53,184.81 733.53,188.477 734.5,195.5C 733.833,195.167 733.167,194.833 732.5,194.5C 729.767,191.628 730.101,188.962 733.5,186.5C 732.635,185.417 731.635,185.251 730.5,186C 729.789,187.255 728.956,188.421 728,189.5C 727.878,187.563 727.045,186.23 725.5,185.5C 726.263,184.732 727.263,184.232 728.5,184C 727.167,182 725.5,180.333 723.5,179C 533.167,178.5 342.834,178.333 152.5,178.5C 152.337,180.857 152.503,183.19 153,185.5C 153.333,184.167 153.667,182.833 154,181.5C 161.702,189.035 169.202,196.702 176.5,204.5C 169.5,204.5 162.5,204.5 155.5,204.5C 153.873,202.37 152.04,200.37 150,198.5C 150.536,196.553 150.202,194.553 149,192.5C 148.085,193.328 147.419,194.328 147,195.5C 144.027,192.527 141.027,189.527 138,186.5C 137.667,184.833 137.333,183.167 137,181.5C 136.667,182.5 136.333,183.5 136,184.5C 134.315,182.983 132.815,181.316 131.5,179.5C 134.306,178.832 136.972,178.166 139.5,177.5 Z"/></g>
<g><path style="opacity:1" fill="#205392" d="M 846.5,184.5 C 848.527,184.338 850.527,184.505 852.5,185C 852.957,185.414 853.291,185.914 853.5,186.5C 852.5,189.834 851.5,193.167 850.5,196.5C 849.914,196.291 849.414,195.957 849,195.5C 844.822,198.75 842.655,197.75 842.5,192.5C 842.667,191.167 842.833,189.833 843,188.5C 844.376,187.295 845.542,185.962 846.5,184.5 Z"/></g>
<g><path style="opacity:1" fill="#295a97" d="M 832.5,185.5 C 833.5,185.5 834.5,185.5 835.5,185.5C 835.332,190.532 836.332,190.699 838.5,186C 839.635,185.251 840.635,185.417 841.5,186.5C 840.289,187.874 839.289,189.374 838.5,191C 839.609,193.047 840.276,195.213 840.5,197.5C 839.5,197.5 838.5,197.5 837.5,197.5C 836.167,190.833 834.833,190.833 833.5,197.5C 832.5,197.5 831.5,197.5 830.5,197.5C 831.295,193.524 831.962,189.524 832.5,185.5 Z"/></g>
<g><path style="opacity:1" fill="#265695" d="M 801.5,184.5 C 802.5,184.5 803.5,184.5 804.5,184.5C 803.995,187.841 803.828,191.174 804,194.5C 806.224,191.962 807.39,188.962 807.5,185.5C 808.5,185.5 809.5,185.5 810.5,185.5C 809.833,188.5 809.167,191.5 808.5,194.5C 809.822,194.67 810.989,194.337 812,193.5C 812.567,190.832 813.067,188.166 813.5,185.5C 814.5,185.5 815.5,185.5 816.5,185.5C 815.364,189.339 815.364,193.173 816.5,197C 816.612,198.662 815.946,199.829 814.5,200.5C 813.813,198.726 812.98,197.059 812,195.5C 809.84,198.081 807.674,198.081 805.5,195.5C 803.908,197.562 802.075,197.895 800,196.5C 799.739,192.399 800.239,188.399 801.5,184.5 Z"/></g>
<g><path style="opacity:1" fill="#2b5996" d="M 764.5,185.5 C 765.5,185.5 766.5,185.5 767.5,185.5C 767.037,188.482 766.704,191.482 766.5,194.5C 767.822,194.67 768.989,194.337 770,193.5C 770.333,191.5 770.667,189.5 771,187.5C 771.826,185.595 772.993,185.261 774.5,186.5C 773.425,189.438 773.259,192.438 774,195.5C 777.128,192.969 778.628,189.636 778.5,185.5C 781.167,185.5 783.833,185.5 786.5,185.5C 786.219,189.188 785.719,192.855 785,196.5C 783.989,197.337 782.822,197.67 781.5,197.5C 781.927,194.624 782.594,191.791 783.5,189C 783.167,188.5 782.833,188 782.5,187.5C 781.202,190.853 779.535,194.02 777.5,197C 774.621,197.957 772.121,197.457 770,195.5C 768.211,197.229 766.044,197.896 763.5,197.5C 763.505,193.466 763.838,189.466 764.5,185.5 Z"/></g>
<g><path style="opacity:1" fill="#295896" d="M 746.5,184.5 C 751.448,184.91 756.448,184.91 761.5,184.5C 761.608,188.247 761.108,191.914 760,195.5C 759.586,195.957 759.086,196.291 758.5,196.5C 758.167,195.5 757.833,194.5 757.5,193.5C 758.239,191.388 758.239,189.388 757.5,187.5C 754.424,190.046 753.091,193.38 753.5,197.5C 752.5,197.5 751.5,197.5 750.5,197.5C 751.401,194.128 751.401,190.795 750.5,187.5C 749.914,187.709 749.414,188.043 749,188.5C 748.433,191.168 747.933,193.834 747.5,196.5C 746.5,196.5 745.5,196.5 744.5,196.5C 744.334,192.326 745,188.326 746.5,184.5 Z"/></g>
<g><path style="opacity:0.994" fill="#fbfcfd" d="M 725.5,185.5 C 723.585,188.933 723.252,192.6 724.5,196.5C 726.767,191.37 728.434,191.703 729.5,197.5C 730.5,197.5 731.5,197.5 732.5,197.5C 732.5,196.5 732.5,195.5 732.5,194.5C 733.167,194.833 733.833,195.167 734.5,195.5C 734.611,196.117 734.944,196.617 735.5,197C 737.473,197.495 739.473,197.662 741.5,197.5C 744.118,199.452 746.452,201.785 748.5,204.5C 559.833,204.5 371.167,204.5 182.5,204.5C 182.167,204.5 181.833,204.5 181.5,204.5C 179.833,204.5 178.167,204.5 176.5,204.5C 169.202,196.702 161.702,189.035 154,181.5C 153.667,182.833 153.333,184.167 153,185.5C 152.503,183.19 152.337,180.857 152.5,178.5C 342.834,178.333 533.167,178.5 723.5,179C 725.5,180.333 727.167,182 728.5,184C 727.263,184.232 726.263,184.732 725.5,185.5 Z"/></g>
<g><path style="opacity:1" fill="#2c5a97" d="M 642.5,184.5 C 644.167,184.5 645.833,184.5 647.5,184.5C 647.5,185.5 647.5,186.5 647.5,187.5C 642.094,186.735 640.094,189.069 641.5,194.5C 642.978,194.238 644.311,194.571 645.5,195.5C 643.956,197.446 641.956,197.946 639.5,197C 636.383,191.877 637.383,187.71 642.5,184.5 Z"/></g>
<g><path style="opacity:1" fill="#2a5996" d="M 579.5,185.5 C 582.167,185.5 584.833,185.5 587.5,185.5C 586.833,189.5 586.167,193.5 585.5,197.5C 584.5,197.5 583.5,197.5 582.5,197.5C 582.911,194.447 583.577,191.447 584.5,188.5C 583.675,187.614 582.675,187.281 581.5,187.5C 582.026,193.025 579.693,196.358 574.5,197.5C 577.21,194.063 578.877,190.063 579.5,185.5 Z"/></g>
<g><path style="opacity:1" fill="#3c659e" d="M 716.5,184.5 C 722.929,184.959 723.929,187.459 719.5,192C 718.062,192.219 716.729,192.719 715.5,193.5C 721.808,194.703 721.975,196.037 716,197.5C 712.929,197.262 711.429,195.596 711.5,192.5C 711.672,188.807 713.339,186.141 716.5,184.5 Z"/></g>
<g><path style="opacity:1" fill="#255594" d="M 687.5,184.5 C 691.824,184.158 693.824,186.158 693.5,190.5C 692.884,197.309 689.717,198.976 684,195.5C 682.663,190.916 683.829,187.249 687.5,184.5 Z"/></g>
<g><path style="opacity:1" fill="#e7eef4" d="M 687.5,187.5 C 688.5,187.5 689.5,187.5 690.5,187.5C 690.662,189.527 690.495,191.527 690,193.5C 688.989,194.337 687.822,194.67 686.5,194.5C 686.298,192.05 686.631,189.717 687.5,187.5 Z"/></g>
<g><path style="opacity:1" fill="#245694" d="M 619.5,184.5 C 624.213,184.468 625.713,186.801 624,191.5C 622.885,195.952 620.052,198.118 615.5,198C 614.042,202.418 613.042,202.418 612.5,198C 613.234,193.833 613.9,189.667 614.5,185.5C 615.822,185.33 616.989,185.663 618,186.5C 618.717,185.956 619.217,185.289 619.5,184.5 Z"/></g>
<g><path style="opacity:1" fill="#dce5ee" d="M 618.5,187.5 C 619.5,187.5 620.5,187.5 621.5,187.5C 621.755,190.99 620.422,193.657 617.5,195.5C 616.102,192.565 616.435,189.898 618.5,187.5 Z"/></g>
<g><path style="opacity:1" fill="#265694" d="M 665.5,184.5 C 669.338,184.007 671.338,185.674 671.5,189.5C 670.564,196.668 667.064,198.668 661,195.5C 659.776,190.626 661.276,186.959 665.5,184.5 Z"/></g>
<g><path style="opacity:1" fill="#e7edf3" d="M 665.5,187.5 C 666.5,187.5 667.5,187.5 668.5,187.5C 668.682,189.591 668.348,191.591 667.5,193.5C 666.675,194.386 665.675,194.719 664.5,194.5C 664.298,192.05 664.631,189.717 665.5,187.5 Z"/></g>
<g><path style="opacity:1" fill="#275694" d="M 649.5,185.5 C 650.5,185.5 651.5,185.5 652.5,185.5C 652.5,186.833 652.5,188.167 652.5,189.5C 653.833,189.5 655.167,189.5 656.5,189.5C 656.5,188.167 656.5,186.833 656.5,185.5C 657.5,185.5 658.5,185.5 659.5,185.5C 658.962,189.524 658.295,193.524 657.5,197.5C 656.5,197.5 655.5,197.5 654.5,197.5C 654.5,195.833 654.5,194.167 654.5,192.5C 651.53,192.746 650.197,194.412 650.5,197.5C 649.5,197.5 648.5,197.5 647.5,197.5C 648.295,193.524 648.962,189.524 649.5,185.5 Z"/></g>
<g><path style="opacity:1" fill="#335d99" d="M 565.5,184.5 C 566.833,184.5 568.167,184.5 569.5,184.5C 569.743,192.068 571.076,192.734 573.5,186.5C 574.5,185.167 575.5,185.167 576.5,186.5C 574.333,190.833 572.167,195.167 570,199.5C 568.736,201.607 566.903,202.607 564.5,202.5C 564.5,201.5 564.5,200.5 564.5,199.5C 565.5,199.5 566.5,199.5 567.5,199.5C 567.708,194.364 567.041,189.364 565.5,184.5 Z"/></g>
<g><path style="opacity:1" fill="#295895" d="M 601.5,180.5 C 602.5,180.5 603.5,180.5 604.5,180.5C 603.833,182.819 603.666,185.153 604,187.5C 605.715,185.241 607.548,183.074 609.5,181C 610.635,180.251 611.635,180.417 612.5,181.5C 610.684,183.817 608.684,185.984 606.5,188C 608.533,190.896 609.866,194.063 610.5,197.5C 609.448,197.649 608.448,197.483 607.5,197C 604.331,188.288 602.331,188.455 601.5,197.5C 600.5,197.5 599.5,197.5 598.5,197.5C 599.021,191.748 600.021,186.082 601.5,180.5 Z"/></g>
<g><path style="opacity:1" fill="#1f5091" d="M 702.5,180.5 C 706.555,180.176 710.555,180.509 714.5,181.5C 713.009,182.244 711.509,182.91 710,183.5C 708.525,188.063 707.692,192.73 707.5,197.5C 706.5,197.5 705.5,197.5 704.5,197.5C 704.779,192.773 705.446,188.107 706.5,183.5C 705.167,183.5 703.833,183.5 702.5,183.5C 702.5,182.5 702.5,181.5 702.5,180.5 Z"/></g>
<g><path style="opacity:1" fill="#dae6f1" d="M 846.5,187.5 C 847.5,187.5 848.5,187.5 849.5,187.5C 849.662,189.527 849.495,191.527 849,193.5C 847.989,194.337 846.822,194.67 845.5,194.5C 845.298,192.05 845.631,189.717 846.5,187.5 Z"/></g>
<g><path style="opacity:1" fill="#255694" d="M 741.5,197.5 C 739.473,197.662 737.473,197.495 735.5,197C 734.944,196.617 734.611,196.117 734.5,195.5C 733.53,188.477 736.53,184.81 743.5,184.5C 743.5,185.5 743.5,186.5 743.5,187.5C 738.505,187.125 736.505,189.458 737.5,194.5C 738.833,194.5 740.167,194.5 741.5,194.5C 741.5,195.5 741.5,196.5 741.5,197.5 Z"/></g>
<g><path style="opacity:1" fill="#275795" d="M 630.5,184.5 C 632.5,184.5 634.5,184.5 636.5,184.5C 635.92,188.81 635.586,193.143 635.5,197.5C 633.136,196.471 630.803,196.471 628.5,197.5C 624.259,192.597 624.926,188.264 630.5,184.5 Z"/></g>
<g><path style="opacity:1" fill="#dee6ef" d="M 630.5,187.5 C 631.675,187.281 632.675,187.614 633.5,188.5C 633.186,191.489 631.852,193.822 629.5,195.5C 628.102,192.565 628.435,189.898 630.5,187.5 Z"/></g>
<g><path style="opacity:1" fill="#2c5b97" d="M 675.5,184.5 C 678.885,183.79 681.219,184.956 682.5,188C 680.98,190.772 678.647,192.606 675.5,193.5C 677.167,194.167 678.833,194.833 680.5,195.5C 678.337,197.72 675.837,198.053 673,196.5C 672.333,195.167 672.333,193.833 673,192.5C 674.745,191.044 676.578,189.711 678.5,188.5C 677.167,187.833 675.833,187.167 674.5,186.5C 674.863,185.817 675.196,185.15 675.5,184.5 Z"/></g>
<g><path style="opacity:1" fill="#255594" d="M 725.5,185.5 C 727.045,186.23 727.878,187.563 728,189.5C 728.956,188.421 729.789,187.255 730.5,186C 731.635,185.251 732.635,185.417 733.5,186.5C 730.101,188.962 729.767,191.628 732.5,194.5C 732.5,195.5 732.5,196.5 732.5,197.5C 731.5,197.5 730.5,197.5 729.5,197.5C 728.434,191.703 726.767,191.37 724.5,196.5C 723.252,192.6 723.585,188.933 725.5,185.5 Z"/></g>
<g><path style="opacity:1" fill="#295996" d="M 789.5,185.5 C 790.5,185.5 791.5,185.5 792.5,185.5C 792.5,186.833 792.5,188.167 792.5,189.5C 794.199,189.34 795.866,189.506 797.5,190C 798.748,193.182 797.748,195.515 794.5,197C 792.527,197.495 790.527,197.662 788.5,197.5C 788.646,193.481 788.979,189.481 789.5,185.5 Z"/></g>
<g><path style="opacity:1" fill="#285895" d="M 820.5,185.5 C 821.586,185.62 822.253,186.287 822.5,187.5C 821.777,189.782 821.443,192.116 821.5,194.5C 822.822,194.67 823.989,194.337 825,193.5C 826.079,190.937 826.579,188.271 826.5,185.5C 827.5,185.5 828.5,185.5 829.5,185.5C 828.838,189.466 828.505,193.466 828.5,197.5C 825.319,197.024 822.153,196.691 819,196.5C 818.416,192.673 818.916,189.006 820.5,185.5 Z"/></g>
<g><path style="opacity:1" fill="#dce7f1" d="M 791.5,191.5 C 792.5,191.5 793.5,191.5 794.5,191.5C 794.5,192.5 794.5,193.5 794.5,194.5C 793.5,194.5 792.5,194.5 791.5,194.5C 791.5,193.5 791.5,192.5 791.5,191.5 Z"/></g>
<g><path style="opacity:1" fill="#325f9a" d="M 589.5,193.5 C 591.912,193.694 592.912,195.027 592.5,197.5C 589.046,197.733 588.046,196.4 589.5,193.5 Z"/></g>
<g><path style="opacity:0.982" fill="#f1f7fb" d="M 198.5,212.5 C 198.957,219.88 195.624,222.713 188.5,221C 185.961,213.611 184.628,213.777 184.5,221.5C 183.5,221.5 182.5,221.5 181.5,221.5C 181.173,216.786 181.507,212.12 182.5,207.5C 183.466,209.396 183.799,211.396 183.5,213.5C 184.5,213.5 185.5,213.5 186.5,213.5C 187.183,206.499 190.516,204.832 196.5,208.5C 197.172,209.949 197.839,211.282 198.5,212.5 Z"/></g>
<g><path style="opacity:0.184" fill="#a7dcf6" d="M 181.5,204.5 C 181.833,204.5 182.167,204.5 182.5,204.5C 183.848,205.186 185.015,206.186 186,207.5C 191.786,204.205 196.619,205.205 200.5,210.5C 199.167,210.5 198.5,211.167 198.5,212.5C 197.839,211.282 197.172,209.949 196.5,208.5C 190.516,204.832 187.183,206.499 186.5,213.5C 185.5,213.5 184.5,213.5 183.5,213.5C 183.799,211.396 183.466,209.396 182.5,207.5C 181.507,212.12 181.173,216.786 181.5,221.5C 180.775,217.605 180.109,213.605 179.5,209.5C 179.365,207.446 180.032,205.779 181.5,204.5 Z"/></g>
<g><path style="opacity:0.99" fill="#049fe3" d="M 131.5,213.5 C 130.494,241.458 129.828,269.458 129.5,297.5C 102.833,297.5 76.1667,297.5 49.5,297.5C 50.326,268.508 50.6593,239.508 50.5,210.5C 77.5,210.5 104.5,210.5 131.5,210.5C 131.5,211.5 131.5,212.5 131.5,213.5 Z"/></g>
<g><path style="opacity:0.957" fill="#19a2e4" d="M 179.5,209.5 C 180.109,213.605 180.775,217.605 181.5,221.5C 182.5,221.5 183.5,221.5 184.5,221.5C 184.628,213.777 185.961,213.611 188.5,221C 195.624,222.713 198.957,219.88 198.5,212.5C 198.5,211.167 199.167,210.5 200.5,210.5C 202.5,210.5 204.5,210.5 206.5,210.5C 206.5,212.167 206.5,213.833 206.5,215.5C 205.577,219.064 205.244,222.731 205.5,226.5C 185.804,225.846 166.471,226.512 147.5,228.5C 146.51,222.69 146.177,216.69 146.5,210.5C 157.581,210.81 168.581,210.477 179.5,209.5 Z"/></g>
<g><path style="opacity:0.963" fill="#2eaae7" d="M 189.5,210.5 C 195.067,209.753 196.9,212.087 195,217.5C 193.604,219.527 191.938,219.86 190,218.5C 189.503,215.854 189.336,213.187 189.5,210.5 Z"/></g>
<g><path style="opacity:0.993" fill="#019fe3" d="M 677.5,213.5 C 676.502,236.327 676.169,259.327 676.5,282.5C 605.5,282.5 534.5,282.5 463.5,282.5C 463.5,285.833 463.5,289.167 463.5,292.5C 450.5,292.5 437.5,292.5 424.5,292.5C 424.5,289.167 424.5,285.833 424.5,282.5C 353.5,282.5 282.5,282.5 211.5,282.5C 211.328,258.49 211.661,234.49 212.5,210.5C 367.5,210.5 522.5,210.5 677.5,210.5C 677.5,211.5 677.5,212.5 677.5,213.5 Z"/></g>
<g><path style="opacity:0.992" fill="#069fe2" d="M 772.5,216.5 C 771.883,216.611 771.383,216.944 771,217.5C 770.5,244.165 770.333,270.831 770.5,297.5C 749.833,297.5 729.167,297.5 708.5,297.5C 708.253,268.488 708.587,239.488 709.5,210.5C 730.167,210.5 750.833,210.5 771.5,210.5C 771.325,212.621 771.659,214.621 772.5,216.5 Z"/></g>
<g><path style="opacity:1" fill="#d0ecf7" d="M 154.5,215.5 C 156.167,215.5 157.833,215.5 159.5,215.5C 159.387,222.662 158.387,222.995 156.5,216.5C 153.904,222.92 153.237,222.587 154.5,215.5 Z"/></g>
<g><path style="opacity:1" fill="#c4e9f7" d="M 160.5,215.5 C 161.931,215.881 162.764,216.881 163,218.5C 163.368,217.09 164.201,216.09 165.5,215.5C 166.833,217.5 166.833,219.5 165.5,221.5C 164.808,220.975 164.308,220.308 164,219.5C 163.311,220.357 162.478,221.023 161.5,221.5C 160.534,219.604 160.201,217.604 160.5,215.5 Z"/></g>
<g><path style="opacity:1" fill="#d3eff8" d="M 168.5,216.5 C 169.946,215.387 171.613,215.22 173.5,216C 172.08,217.53 171.08,219.363 170.5,221.5C 169.83,219.709 169.163,218.042 168.5,216.5 Z"/></g>
<g><path style="opacity:0.98" fill="#004489" d="M 206.5,215.5 C 209.035,225.875 210.035,236.541 209.5,247.5C 189.833,247.5 170.167,247.5 150.5,247.5C 148.855,241.273 147.855,234.939 147.5,228.5C 166.471,226.512 185.804,225.846 205.5,226.5C 205.244,222.731 205.577,219.064 206.5,215.5 Z"/></g>
<g><path style="opacity:0.991" fill="#029ee2" d="M 772.5,222.5 C 818.761,223.495 865.095,223.828 911.5,223.5C 911.616,226.86 911.949,230.193 912.5,233.5C 911.093,254.651 910.427,275.985 910.5,297.5C 865.167,297.5 819.833,297.5 774.5,297.5C 774.985,272.433 774.318,247.433 772.5,222.5 Z"/></g>
<g><path style="opacity:1" fill="#04468a" d="M 772.5,216.5 C 772.5,218.5 772.5,220.5 772.5,222.5C 774.318,247.433 774.985,272.433 774.5,297.5C 819.833,297.5 865.167,297.5 910.5,297.5C 910.427,275.985 911.093,254.651 912.5,233.5C 914.812,265.79 915.145,298.123 913.5,330.5C 846.784,330.026 779.784,330.026 712.5,330.5C 710.921,319.531 709.587,308.531 708.5,297.5C 729.167,297.5 749.833,297.5 770.5,297.5C 770.333,270.831 770.5,244.165 771,217.5C 771.383,216.944 771.883,216.611 772.5,216.5 Z"/></g>
<g><path style="opacity:0.996" fill="#019ee2" d="M 1156.5,235.5 C 1155.5,255.993 1155.17,276.66 1155.5,297.5C 1156.83,297.5 1158.17,297.5 1159.5,297.5C 1169.5,297.5 1179.5,297.5 1189.5,297.5C 1189.5,299.833 1189.5,302.167 1189.5,304.5C 1188.46,375.463 1187.46,446.463 1186.5,517.5C 1175.17,517.5 1163.83,517.5 1152.5,517.5C 1152.82,525.019 1152.49,532.352 1151.5,539.5C 1107.83,539.5 1064.17,539.5 1020.5,539.5C 1020.72,515.165 1021.05,490.831 1021.5,466.5C 1032.01,466.828 1042.35,466.494 1052.5,465.5C 1074.76,466.489 1097.09,466.822 1119.5,466.5C 1119.5,455.833 1119.5,445.167 1119.5,434.5C 1096.17,434.5 1072.83,434.5 1049.5,434.5C 1049.5,422.5 1049.5,410.5 1049.5,398.5C 1072.5,398.5 1095.5,398.5 1118.5,398.5C 1119.21,377.841 1119.54,357.174 1119.5,336.5C 1112.31,336.825 1105.31,336.491 1098.5,335.5C 1105.83,335.5 1113.17,335.5 1120.5,335.5C 1120.5,324.833 1120.5,314.167 1120.5,303.5C 1082.17,303.5 1043.83,303.5 1005.5,303.5C 1005.5,278.833 1005.5,254.167 1005.5,229.5C 1055.5,229.5 1105.5,229.5 1155.5,229.5C 1155.83,231.5 1156.17,233.5 1156.5,235.5 Z"/></g>
<g><path style="opacity:1" fill="#bae2f5" d="M 424.5,244.5 C 426.5,244.5 428.5,244.5 430.5,244.5C 430.808,246.924 430.474,249.257 429.5,251.5C 428.833,249.833 428.167,248.167 427.5,246.5C 426.813,248.274 425.98,249.941 425,251.5C 424.503,249.19 424.337,246.857 424.5,244.5 Z"/></g>
<g><path style="opacity:1" fill="#e3f3fa" d="M 461.5,236.5 C 462.675,236.281 463.675,236.614 464.5,237.5C 461.86,241.579 459.694,245.912 458,250.5C 456.644,251.38 455.144,251.714 453.5,251.5C 453.5,250.5 453.5,249.5 453.5,248.5C 454.5,248.5 455.5,248.5 456.5,248.5C 455.268,244.866 453.601,241.366 451.5,238C 452.5,237.333 453.5,237.333 454.5,238C 455.794,240.087 456.961,242.254 458,244.5C 459.401,241.933 460.568,239.267 461.5,236.5 Z"/></g>
<g><path style="opacity:0.98" fill="#03458a" d="M 1156.5,235.5 C 1159.2,256.061 1160.2,276.728 1159.5,297.5C 1158.17,297.5 1156.83,297.5 1155.5,297.5C 1155.17,276.66 1155.5,255.993 1156.5,235.5 Z"/></g>
<g><path style="opacity:0.999" fill="#e5f4fa" d="M 102.5,245.5 C 111.507,244.011 114.674,247.677 112,256.5C 109.441,259.349 106.274,260.183 102.5,259C 100.963,257.89 100.297,256.39 100.5,254.5C 103.024,255.812 105.691,256.312 108.5,256C 108.957,255.586 109.291,255.086 109.5,254.5C 107.955,253.548 106.288,253.215 104.5,253.5C 104.5,252.5 104.5,251.5 104.5,250.5C 105.833,250.5 107.167,250.5 108.5,250.5C 108.5,249.5 108.5,248.5 108.5,247.5C 106.046,247.321 103.879,247.987 102,249.5C 101.5,249.167 101,248.833 100.5,248.5C 101.193,247.482 101.859,246.482 102.5,245.5 Z"/></g>
<g><path style="opacity:1" fill="#c4e6f5" d="M 431.5,244.5 C 432.931,244.881 433.764,245.881 434,247.5C 434.689,246.643 435.522,245.977 436.5,245.5C 437.641,247.421 437.808,249.421 437,251.5C 436.667,250.167 436.333,248.833 436,247.5C 432.323,252.596 430.823,251.596 431.5,244.5 Z"/></g>
<g><path style="opacity:1" fill="#def0fa" d="M 751.5,247.5 C 752.833,247.5 754.167,247.5 755.5,247.5C 756.722,251.668 758.056,255.835 759.5,260C 759.167,260.5 758.833,261 758.5,261.5C 755.167,257.5 751.833,257.5 748.5,261.5C 748.167,261 747.833,260.5 747.5,260C 748.541,255.712 749.874,251.545 751.5,247.5 Z"/></g>
<g><path style="opacity:0.998" fill="#cae5f7" d="M 847.5,250.5 C 850.85,250.335 854.183,250.502 857.5,251C 858.767,252.796 858.767,254.629 857.5,256.5C 860.441,259.543 860.108,262.043 856.5,264C 853.518,264.498 850.518,264.665 847.5,264.5C 847.5,259.833 847.5,255.167 847.5,250.5 Z"/></g>
<g><path style="opacity:1" fill="#d4ebf6" d="M 72.5,253.5 C 74.1667,253.5 75.8333,253.5 77.5,253.5C 77.3872,260.662 76.3872,260.995 74.5,254.5C 71.904,260.92 71.2373,260.587 72.5,253.5 Z"/></g>
<g><path style="opacity:1" fill="#b0dff4" d="M 78.5,252.5 C 80.1238,252.36 81.2904,253.027 82,254.5C 84.8924,252.327 88.059,251.994 91.5,253.5C 90.1735,255.311 89.1735,257.311 88.5,259.5C 87.1667,252.833 85.8333,252.833 84.5,259.5C 83.7492,258.624 83.2492,257.624 83,256.5C 81.9805,257.687 80.8139,258.687 79.5,259.5C 78.5258,257.257 78.1924,254.924 78.5,252.5 Z"/></g>
<g><path style="opacity:1" fill="#cfeef8" d="M 720.5,255.5 C 722.167,255.5 723.833,255.5 725.5,255.5C 725.637,262.626 724.97,262.959 723.5,256.5C 720.135,264.476 719.135,264.142 720.5,255.5 Z"/></g>
<g><path style="opacity:1" fill="#d4eff8" d="M 734.5,256.5 C 736.288,255.378 738.288,255.211 740.5,256C 739.08,257.53 738.08,259.363 737.5,261.5C 736.999,259.345 735.999,257.678 734.5,256.5 Z"/></g>
<g><path style="opacity:1" fill="#bbe4f5" d="M 727.5,255.5 C 728.931,255.881 729.764,256.881 730,258.5C 730.368,257.09 731.201,256.09 732.5,255.5C 733.833,257.833 733.833,260.167 732.5,262.5C 731.749,261.624 731.249,260.624 731,259.5C 730.311,260.357 729.478,261.023 728.5,261.5C 727.534,259.604 727.201,257.604 727.5,255.5 Z"/></g>
<g><path style="opacity:1" fill="#eaf5fb" d="M 1086.5,257.5 C 1089.83,257.5 1093.17,257.5 1096.5,257.5C 1096.41,263.279 1097.08,268.946 1098.5,274.5C 1097.5,274.5 1096.5,274.5 1095.5,274.5C 1095.5,273.5 1095.5,272.5 1095.5,271.5C 1092.5,271.5 1089.5,271.5 1086.5,271.5C 1086.5,272.5 1086.5,273.5 1086.5,274.5C 1085.5,274.5 1084.5,274.5 1083.5,274.5C 1083.34,271.813 1084.17,269.48 1086,267.5C 1086.5,264.183 1086.67,260.85 1086.5,257.5 Z"/></g>
<g><path style="opacity:1" fill="#40b6ec" d="M 1089.5,259.5 C 1090.83,259.5 1092.17,259.5 1093.5,259.5C 1093.5,262.833 1093.5,266.167 1093.5,269.5C 1091.83,269.5 1090.17,269.5 1088.5,269.5C 1089.21,266.214 1089.54,262.881 1089.5,259.5 Z"/></g>
<g><path style="opacity:1" fill="#c7e6f5" d="M 831.5,257.5 C 834.572,257.183 837.572,257.516 840.5,258.5C 839.173,260.311 838.173,262.311 837.5,264.5C 836.548,262.955 836.215,261.288 836.5,259.5C 835.5,259.5 834.5,259.5 833.5,259.5C 833.785,261.288 833.452,262.955 832.5,264.5C 831.749,263.624 831.249,262.624 831,261.5C 830.167,262.5 829.333,263.5 828.5,264.5C 827.359,262.579 827.192,260.579 828,258.5C 829.178,261.964 830.345,261.631 831.5,257.5 Z"/></g>
<g><path style="opacity:1" fill="#d3ebf6" d="M 820.5,258.5 C 822.167,258.5 823.833,258.5 825.5,258.5C 825.637,265.626 824.97,265.959 823.5,259.5C 822.719,260.729 822.219,262.062 822,263.5C 821.107,264.711 820.274,264.711 819.5,263.5C 820.309,261.929 820.643,260.262 820.5,258.5 Z"/></g>
<g><path style="opacity:1" fill="#d1e8f5" d="M 1058.5,265.5 C 1060.17,265.5 1061.83,265.5 1063.5,265.5C 1063.39,272.662 1062.39,272.995 1060.5,266.5C 1059.83,268.167 1059.17,269.833 1058.5,271.5C 1058.17,271.333 1057.83,271.167 1057.5,271C 1058.41,269.301 1058.74,267.467 1058.5,265.5 Z"/></g>
<g><path style="opacity:1" fill="#c5ecf8" d="M 1064.5,265.5 C 1065.93,265.881 1066.76,266.881 1067,268.5C 1067.83,267.5 1068.67,266.5 1069.5,265.5C 1070.64,267.421 1070.81,269.421 1070,271.5C 1069.67,270.5 1069.33,269.5 1069,268.5C 1065.36,272.459 1063.86,271.459 1064.5,265.5 Z"/></g>
<g><path style="opacity:1" fill="#dbecf5" d="M 1072.5,266.5 C 1073.95,265.387 1075.61,265.22 1077.5,266C 1076.08,267.53 1075.08,269.363 1074.5,271.5C 1073.83,269.709 1073.16,268.042 1072.5,266.5 Z"/></g>
<g><path style="opacity:1" fill="#004388" d="M 677.5,213.5 C 678.525,222.175 679.692,230.842 681,239.5C 681.294,264.834 681.127,290.167 680.5,315.5C 609.5,315.5 538.5,315.5 467.5,315.5C 467.5,318.5 467.5,321.5 467.5,324.5C 454.167,324.5 440.833,324.5 427.5,324.5C 427.037,321.518 426.704,318.518 426.5,315.5C 355.833,315.5 285.167,315.5 214.5,315.5C 213.263,304.521 212.263,293.521 211.5,282.5C 282.5,282.5 353.5,282.5 424.5,282.5C 424.5,285.833 424.5,289.167 424.5,292.5C 437.5,292.5 450.5,292.5 463.5,292.5C 463.5,289.167 463.5,285.833 463.5,282.5C 534.5,282.5 605.5,282.5 676.5,282.5C 676.169,259.327 676.502,236.327 677.5,213.5 Z"/></g>
<g><path style="opacity:0.998" fill="#05468a" d="M 131.5,213.5 C 132.948,224.172 134.282,235.005 135.5,246C 134.829,274.175 134.162,302.342 133.5,330.5C 107.167,330.5 80.8333,330.5 54.5,330.5C 52.9219,319.451 51.2552,308.451 49.5,297.5C 76.1667,297.5 102.833,297.5 129.5,297.5C 129.828,269.458 130.494,241.458 131.5,213.5 Z"/></g>
<g><path style="opacity:0.998" fill="#049fe3" d="M 407.5,327.5 C 406.503,347.66 406.17,367.993 406.5,388.5C 405.532,390.607 405.198,392.941 405.5,395.5C 351.167,395.5 296.833,395.5 242.5,395.5C 242.5,385.833 242.5,376.167 242.5,366.5C 207.996,366.168 173.663,366.502 139.5,367.5C 139.167,367.5 138.833,367.5 138.5,367.5C 138.865,346.262 139.532,325.095 140.5,304C 161.833,303.333 183.167,303.333 204.5,304C 206.553,307.798 207.553,311.965 207.5,316.5C 249.5,316.5 291.5,316.5 333.5,316.5C 333.5,318.833 333.5,321.167 333.5,323.5C 358.167,323.5 382.833,323.5 407.5,323.5C 407.5,324.833 407.5,326.167 407.5,327.5 Z"/></g>
<g><path style="opacity:0.997" fill="#034489" d="M 1005.5,303.5 C 1043.83,303.5 1082.17,303.5 1120.5,303.5C 1120.5,314.167 1120.5,324.833 1120.5,335.5C 1113.17,335.5 1105.83,335.5 1098.5,335.5C 1068.67,336.361 1039,336.528 1009.5,336C 1006.9,325.362 1005.57,314.528 1005.5,303.5 Z"/></g>
<g><path style="opacity:0.997" fill="#079fe2" d="M 493.5,333.5 C 492.228,383.789 491.561,434.123 491.5,484.5C 473.833,484.5 456.167,484.5 438.5,484.5C 438.5,478.833 438.5,473.167 438.5,467.5C 433.167,467.5 427.833,467.5 422.5,467.5C 422.712,420.498 423.212,373.498 424,326.5C 446.761,325.34 469.594,325.173 492.5,326C 493.435,328.381 493.768,330.881 493.5,333.5 Z"/></g>
<g><path style="opacity:1" fill="#029fe2" d="M 678.5,332.5 C 677.045,354.651 676.378,376.984 676.5,399.5C 678.292,399.634 679.958,399.301 681.5,398.5C 683.833,398.5 686.167,398.5 688.5,398.5C 688.401,401.237 688.735,403.904 689.5,406.5C 687.728,443.492 686.728,480.826 686.5,518.5C 633.462,514.621 580.462,510.288 527.5,505.5C 527.385,479.683 527.385,453.683 527.5,427.5C 528.477,416.581 528.81,405.581 528.5,394.5C 519.5,394.5 510.5,394.5 501.5,394.5C 501.606,371.829 501.939,349.163 502.5,326.5C 560.837,326.167 619.17,326.5 677.5,327.5C 678.309,329.071 678.643,330.738 678.5,332.5 Z"/></g>
<g><path style="opacity:1" fill="#d1edf9" d="M 321.5,348.5 C 322.833,348.5 324.167,348.5 325.5,348.5C 325.5,352.5 325.5,356.5 325.5,360.5C 327.167,360.5 328.833,360.5 330.5,360.5C 330.5,356.5 330.5,352.5 330.5,348.5C 331.833,348.5 333.167,348.5 334.5,348.5C 334.447,354.196 334.78,359.862 335.5,365.5C 331.014,363.898 326.347,363.232 321.5,363.5C 321.5,358.5 321.5,353.5 321.5,348.5 Z"/></g>
<g><path style="opacity:0.771" fill="#155798" d="M 678.5,332.5 C 681.267,354.384 682.267,376.384 681.5,398.5C 679.958,399.301 678.292,399.634 676.5,399.5C 676.378,376.984 677.045,354.651 678.5,332.5 Z"/></g>
<g><path style="opacity:1" fill="#c6e7f5" d="M 293.5,356.5 C 295.167,356.5 296.833,356.5 298.5,356.5C 298.808,358.924 298.474,361.257 297.5,363.5C 296.833,361.833 296.167,360.167 295.5,358.5C 294.813,360.274 293.98,361.941 293,363.5C 293.207,361.249 293.373,358.915 293.5,356.5 Z"/></g>
<g><path style="opacity:1" fill="#cbe6f5" d="M 300.5,356.5 C 301.268,357.263 301.768,358.263 302,359.5C 304.909,356.606 308.409,355.773 312.5,357C 310.996,358.491 310.163,360.324 310,362.5C 309.51,361.207 309.343,359.873 309.5,358.5C 308.5,358.5 307.5,358.5 306.5,358.5C 306.291,364.261 305.458,364.594 304,359.5C 303.632,360.91 302.799,361.91 301.5,362.5C 300.534,360.604 300.201,358.604 300.5,356.5 Z"/></g>
<g><path style="opacity:0.994" fill="#004489" d="M 407.5,327.5 C 409.326,340.111 410.66,352.778 411.5,365.5C 410.641,386.491 410.308,407.491 410.5,428.5C 406.5,428.5 402.5,428.5 398.5,428.5C 394.4,428.237 390.4,428.57 386.5,429.5C 368.674,428.503 350.674,428.17 332.5,428.5C 332.5,429.5 332.5,430.5 332.5,431.5C 331.365,433.213 329.698,433.88 327.5,433.5C 328.486,429.557 329.152,425.557 329.5,421.5C 286.378,411.235 243.378,400.569 200.5,389.5C 200.46,392.988 199.793,396.321 198.5,399.5C 179.833,399.5 161.167,399.5 142.5,399.5C 141.819,388.715 140.485,378.049 138.5,367.5C 138.833,367.5 139.167,367.5 139.5,367.5C 173.5,367.5 207.5,367.5 241.5,367.5C 241.5,377.167 241.5,386.833 241.5,396.5C 296.5,396.5 351.5,396.5 406.5,396.5C 406.5,393.833 406.5,391.167 406.5,388.5C 406.17,367.993 406.503,347.66 407.5,327.5 Z"/></g>
<g><path style="opacity:0.82" fill="#1a5fa0" d="M 861.5,379.5 C 861.5,380.5 861.5,381.5 861.5,382.5C 860.817,384.176 859.483,384.843 857.5,384.5C 857.5,380.833 857.5,377.167 857.5,373.5C 855.833,373.5 854.167,373.5 852.5,373.5C 852.5,377.167 852.5,380.833 852.5,384.5C 851.167,384.5 849.833,384.5 848.5,384.5C 848.5,379.833 848.5,375.167 848.5,370.5C 852.514,370.334 856.514,370.501 860.5,371C 861.444,373.719 861.777,376.552 861.5,379.5 Z"/></g>
<g><path style="opacity:0.722" fill="#125398" d="M 942.5,370.5 C 945.833,370.5 949.167,370.5 952.5,370.5C 952.5,371.5 952.5,372.5 952.5,373.5C 950.076,373.192 947.743,373.526 945.5,374.5C 947.396,375.466 949.396,375.799 951.5,375.5C 951.5,376.5 951.5,377.5 951.5,378.5C 949.396,378.201 947.396,378.534 945.5,379.5C 947.743,380.474 950.076,380.808 952.5,380.5C 952.5,381.833 952.5,383.167 952.5,384.5C 949.167,384.5 945.833,384.5 942.5,384.5C 942.5,379.833 942.5,375.167 942.5,370.5 Z"/></g>
<g><path style="opacity:0.83" fill="#11539a" d="M 954.5,370.5 C 955.5,370.5 956.5,370.5 957.5,370.5C 957.5,373.833 957.5,377.167 957.5,380.5C 958.833,380.5 960.167,380.5 961.5,380.5C 961.5,377.167 961.5,373.833 961.5,370.5C 962.833,370.5 964.167,370.5 965.5,370.5C 965.5,373.833 965.5,377.167 965.5,380.5C 966.822,380.67 967.989,380.337 969,379.5C 969.498,376.518 969.665,373.518 969.5,370.5C 972.833,370.5 976.167,370.5 979.5,370.5C 979.65,375.912 980.317,381.246 981.5,386.5C 978.99,386.002 976.49,385.336 974,384.5C 971.667,385.167 969.333,385.833 967,386.5C 962.95,385.044 958.783,384.377 954.5,384.5C 954.5,379.833 954.5,375.167 954.5,370.5 Z M 973.5,373.5 C 974.5,373.5 975.5,373.5 976.5,373.5C 976.5,375.833 976.5,378.167 976.5,380.5C 975.5,380.5 974.5,380.5 973.5,380.5C 973.5,378.167 973.5,375.833 973.5,373.5 Z"/></g>
<g><path style="opacity:0.786" fill="#134e97" d="M 884.5,373.5 C 885.5,373.5 886.5,373.5 887.5,373.5C 887.332,378.532 888.332,378.699 890.5,374C 891.833,373.333 893.167,373.333 894.5,374C 893.484,375.677 892.484,377.343 891.5,379C 892.009,380.169 892.842,381.002 894,381.5C 893.462,375.033 896.296,372.533 902.5,374C 903.944,375.126 904.61,376.626 904.5,378.5C 904.16,380.512 903.827,382.512 903.5,384.5C 900.315,384.98 897.481,384.314 895,382.5C 891.868,385.403 889.702,384.736 888.5,380.5C 887.571,381.689 887.238,383.022 887.5,384.5C 886.5,384.5 885.5,384.5 884.5,384.5C 884.5,380.833 884.5,377.167 884.5,373.5 Z M 898.5,376.5 C 900.912,376.694 901.912,378.027 901.5,380.5C 900.167,380.5 898.833,380.5 897.5,380.5C 897.433,379.041 897.766,377.708 898.5,376.5 Z"/></g>
<g><path style="opacity:0.793" fill="#104e94" d="M 861.5,382.5 C 861.5,381.5 861.5,380.5 861.5,379.5C 863.443,378.922 863.777,377.922 862.5,376.5C 864.441,373.666 867.107,372.832 870.5,374C 871.456,377.394 871.789,380.894 871.5,384.5C 867.838,384.966 864.505,384.299 861.5,382.5 Z M 866.5,375.5 C 867.289,375.783 867.956,376.283 868.5,377C 867.184,377.528 866.517,377.028 866.5,375.5 Z"/></g>
<g><path style="opacity:0.996" fill="#19539b" d="M 916.5,373.5 C 917.5,373.5 918.5,373.5 919.5,373.5C 919.343,374.873 919.51,376.207 920,377.5C 921.295,375.878 922.795,374.545 924.5,373.5C 925.167,373.833 925.833,374.167 926.5,374.5C 925.289,375.874 924.289,377.374 923.5,379C 924.009,380.169 924.842,381.002 926,381.5C 926.761,378.947 927.594,376.447 928.5,374C 930.833,373.333 933.167,373.333 935.5,374C 936.456,377.394 936.789,380.894 936.5,384.5C 932.339,384.242 928.339,384.242 924.5,384.5C 922.728,383.64 921.395,382.307 920.5,380.5C 919.571,381.689 919.238,383.022 919.5,384.5C 918.5,384.5 917.5,384.5 916.5,384.5C 916.5,380.833 916.5,377.167 916.5,373.5 Z M 931.5,375.5 C 932.773,376.077 932.773,376.743 931.5,377.5C 930.537,377.03 930.537,376.363 931.5,375.5 Z"/></g>
<g><path style="opacity:0.894" fill="#1d5095" d="M 872.5,373.5 C 880.977,371.156 884.477,374.156 883,382.5C 881.211,384.229 879.044,384.896 876.5,384.5C 876.5,385.833 876.5,387.167 876.5,388.5C 875.178,388.67 874.011,388.337 873,387.5C 873.039,382.692 872.873,378.025 872.5,373.5 Z M 876.5,376.5 C 877.833,376.5 879.167,376.5 880.5,376.5C 880.884,378.665 880.217,380.332 878.5,381.5C 876.783,380.332 876.116,378.665 876.5,376.5 Z"/></g>
<g><path style="opacity:0.756" fill="#125096" d="M 905.5,373.5 C 908.187,373.336 910.854,373.503 913.5,374C 914.574,374.739 915.241,375.739 915.5,377C 915.45,379.279 915.117,381.612 914.5,384C 911.518,384.498 908.518,384.665 905.5,384.5C 905.5,380.833 905.5,377.167 905.5,373.5 Z M 909.5,375.5 C 910.376,375.369 911.043,375.702 911.5,376.5C 909.192,377.873 908.525,377.54 909.5,375.5 Z"/></g>
<g><path style="opacity:0.998" fill="#059ee2" d="M 332.5,431.5 C 334.076,432.075 335.742,432.408 337.5,432.5C 353.845,431.644 370.179,430.644 386.5,429.5C 390.4,428.57 394.4,428.237 398.5,428.5C 399.11,429.391 399.443,430.391 399.5,431.5C 397.52,432.848 396.353,434.848 396,437.5C 390.637,455.414 385.803,473.414 381.5,491.5C 308.169,473.167 234.836,454.834 161.5,436.5C 161.457,433.09 161.957,429.757 163,426.5C 164.622,420.765 166.456,415.098 168.5,409.5C 169,409.167 169.5,408.833 170,408.5C 177.231,410.911 184.564,412.911 192,414.5C 194.676,409.805 196.843,404.805 198.5,399.5C 199.793,396.321 200.46,392.988 200.5,389.5C 243.378,400.569 286.378,411.235 329.5,421.5C 329.152,425.557 328.486,429.557 327.5,433.5C 329.698,433.88 331.365,433.213 332.5,431.5 Z M 386.5,429.5 C 370.179,430.644 353.845,431.644 337.5,432.5C 335.742,432.408 334.076,432.075 332.5,431.5C 332.5,430.5 332.5,429.5 332.5,428.5C 350.674,428.17 368.674,428.503 386.5,429.5 Z"/></g>
<g><path style="opacity:0.957" fill="#137ebe" d="M 139.5,367.5 C 173.663,366.502 207.996,366.168 242.5,366.5C 242.5,376.167 242.5,385.833 242.5,395.5C 296.833,395.5 351.167,395.5 405.5,395.5C 405.198,392.941 405.532,390.607 406.5,388.5C 406.5,391.167 406.5,393.833 406.5,396.5C 351.5,396.5 296.5,396.5 241.5,396.5C 241.5,386.833 241.5,377.167 241.5,367.5C 207.5,367.5 173.5,367.5 139.5,367.5 Z"/></g>
<g><path style="opacity:0.995" fill="#03468b" d="M 501.5,394.5 C 510.5,394.5 519.5,394.5 528.5,394.5C 528.81,405.581 528.477,416.581 527.5,427.5C 519.913,427.814 512.413,427.481 505,426.5C 504.441,415.758 503.275,405.091 501.5,394.5 Z"/></g>
<g><path style="opacity:0.998" fill="#029ee2" d="M 739.5,406.5 C 737.666,416.604 736.666,426.937 736.5,437.5C 738.167,437.5 739.833,437.5 741.5,437.5C 741.5,435.833 741.5,434.167 741.5,432.5C 742.451,433.919 742.784,435.585 742.5,437.5C 771.8,439.542 801.133,440.875 830.5,441.5C 830.5,438.167 830.5,434.833 830.5,431.5C 848.495,432.589 866.495,433.589 884.5,434.5C 884.552,438.198 884.886,441.865 885.5,445.5C 916.394,446.602 947.061,447.935 977.5,449.5C 977.397,437.784 978.064,426.117 979.5,414.5C 991.495,415.25 1003.49,415.916 1015.5,416.5C 1015.63,418.216 1015.96,419.883 1016.5,421.5C 1015.73,422.263 1015.23,423.263 1015,424.5C 1012.74,462.857 1010.24,501.19 1007.5,539.5C 903.167,534.542 798.834,529.542 694.5,524.5C 696.946,483.149 699.613,441.816 702.5,400.5C 713.515,400.628 724.515,401.128 735.5,402C 738.447,402.112 739.78,403.612 739.5,406.5 Z"/></g>
<g><path style="opacity:1" fill="#e5f3fa" d="M 464.5,398.5 C 465.552,398.351 466.552,398.517 467.5,399C 468.975,403.083 470.975,403.416 473.5,400C 474.5,399.333 475.5,399.333 476.5,400C 472.534,404.533 472.868,408.867 477.5,413C 476.5,413.667 475.5,413.667 474.5,413C 473.274,411.365 471.941,409.865 470.5,408.5C 469.376,409.914 468.376,411.414 467.5,413C 466.365,413.749 465.365,413.583 464.5,412.5C 465.651,410.191 466.984,408.024 468.5,406C 467.022,403.541 465.688,401.041 464.5,398.5 Z"/></g>
<g><path style="opacity:1" fill="#c2e9f7" d="M 436.5,406.5 C 438.167,406.5 439.833,406.5 441.5,406.5C 441.808,408.924 441.474,411.257 440.5,413.5C 439.167,406.833 437.833,406.833 436.5,413.5C 436.167,413.167 435.833,412.833 435.5,412.5C 436.348,410.591 436.682,408.591 436.5,406.5 Z"/></g>
<g><path style="opacity:1" fill="#c9e9f7" d="M 447.5,406.5 C 448.725,407.152 449.392,408.319 449.5,410C 449.078,414.331 448.245,414.498 447,410.5C 443.637,414.167 442.637,413.167 444,407.5C 445.141,411.006 446.307,410.673 447.5,406.5 Z"/></g>
<g><path style="opacity:0.982" fill="#07478a" d="M 739.5,406.5 C 741.006,415.093 741.673,423.76 741.5,432.5C 741.5,434.167 741.5,435.833 741.5,437.5C 739.833,437.5 738.167,437.5 736.5,437.5C 736.666,426.937 737.666,416.604 739.5,406.5 Z"/></g>
<g><path style="opacity:1" fill="#e8f5fb" d="M 611.5,416.5 C 614.99,416.245 617.657,417.578 619.5,420.5C 619,420.833 618.5,421.167 618,421.5C 611.285,417.869 608.952,419.869 611,427.5C 611.725,428.059 612.558,428.392 613.5,428.5C 615.325,427.349 617.325,426.682 619.5,426.5C 619.863,428.911 618.863,430.411 616.5,431C 613.653,431.944 611.153,431.444 609,429.5C 606.35,424.266 607.183,419.933 611.5,416.5 Z"/></g>
<g><path style="opacity:1" fill="#c2e4f4" d="M 580.5,424.5 C 586.235,423.821 587.902,426.155 585.5,431.5C 584.833,429.833 584.167,428.167 583.5,426.5C 582.813,428.274 581.98,429.941 581,431.5C 580.503,429.19 580.337,426.857 580.5,424.5 Z"/></g>
<g><path style="opacity:1" fill="#bfe4f5" d="M 587.5,425.5 C 588.75,425.577 589.583,426.244 590,427.5C 590.689,426.643 591.522,425.977 592.5,425.5C 593.833,427.5 593.833,429.5 592.5,431.5C 591.749,430.624 591.249,429.624 591,428.5C 590.632,429.91 589.799,430.91 588.5,431.5C 587.534,429.604 587.201,427.604 587.5,425.5 Z"/></g>
<g><path style="opacity:0.999" fill="#dbf0fa" d="M 276.5,428.5 C 277.978,428.238 279.311,428.571 280.5,429.5C 282.118,433.068 283.451,436.735 284.5,440.5C 284,440.833 283.5,441.167 283,441.5C 279.795,438.9 276.628,438.9 273.5,441.5C 273.167,441 272.833,440.5 272.5,440C 274.142,436.24 275.475,432.407 276.5,428.5 Z"/></g>
<g><path style="opacity:1" fill="#dbeff9" d="M 286.5,428.5 C 287.833,428.5 289.167,428.5 290.5,428.5C 290.5,432.167 290.5,435.833 290.5,439.5C 291.833,439.5 293.167,439.5 294.5,439.5C 294.5,435.833 294.5,432.167 294.5,428.5C 295.5,428.5 296.5,428.5 297.5,428.5C 297.5,432.167 297.5,435.833 297.5,439.5C 298.5,439.5 299.5,439.5 300.5,439.5C 300.5,435.833 300.5,432.167 300.5,428.5C 301.5,428.5 302.5,428.5 303.5,428.5C 303.5,433.167 303.5,437.833 303.5,442.5C 297.833,442.5 292.167,442.5 286.5,442.5C 286.5,437.833 286.5,433.167 286.5,428.5 Z"/></g>
<g><path style="opacity:0.997" fill="#024489" d="M 399.5,431.5 C 401.638,440.895 403.305,450.395 404.5,460C 398.923,481.559 393.256,503.059 387.5,524.5C 314.073,506.081 240.74,487.247 167.5,468C 167,467.5 166.5,467 166,466.5C 164.495,456.487 162.995,446.487 161.5,436.5C 234.836,454.834 308.169,473.167 381.5,491.5C 385.803,473.414 390.637,455.414 396,437.5C 396.353,434.848 397.52,432.848 399.5,431.5 Z"/></g>
<g><path style="opacity:0.998" fill="#004589" d="M 1049.5,434.5 C 1072.83,434.5 1096.17,434.5 1119.5,434.5C 1119.5,445.167 1119.5,455.833 1119.5,466.5C 1097.09,466.822 1074.76,466.489 1052.5,465.5C 1052.34,455.082 1051.34,444.748 1049.5,434.5 Z"/></g>
<g><path style="opacity:1" fill="#90ccf0" d="M 245.5,435.5 C 248.167,435.5 250.833,435.5 253.5,435.5C 253.262,439.099 254.262,439.433 256.5,436.5C 257.631,438.074 257.798,439.741 257,441.5C 256.692,440.692 256.192,440.025 255.5,439.5C 254.326,441.234 252.66,442.234 250.5,442.5C 248.327,440.692 246.493,440.692 245,442.5C 245.207,440.249 245.373,437.915 245.5,435.5 Z"/></g>
<g><path style="opacity:0.991" fill="#034589" d="M 493.5,333.5 C 494.991,340.276 495.824,347.276 496,354.5C 496.167,362.667 496.333,370.833 496.5,379C 495.645,424.829 495.311,470.663 495.5,516.5C 477.83,516.667 460.164,516.5 442.5,516C 441.141,510.961 440.474,505.795 440.5,500.5C 435.5,500.5 430.5,500.5 425.5,500.5C 425.158,489.439 424.158,478.439 422.5,467.5C 427.833,467.5 433.167,467.5 438.5,467.5C 438.5,473.167 438.5,478.833 438.5,484.5C 456.167,484.5 473.833,484.5 491.5,484.5C 491.561,434.123 492.228,383.789 493.5,333.5 Z"/></g>
<g><path style="opacity:1" fill="#dff2fa" d="M 863.5,477.5 C 870.657,477.155 873.824,480.488 873,487.5C 870.928,492.143 867.428,493.643 862.5,492C 858.197,486.642 858.531,481.809 863.5,477.5 Z"/></g>
<g><path style="opacity:1" fill="#2da7e5" d="M 863.5,480.5 C 865.467,480.261 867.301,480.594 869,481.5C 869.769,484.099 869.602,486.599 868.5,489C 866.741,489.798 865.074,489.631 863.5,488.5C 862.297,485.84 862.297,483.173 863.5,480.5 Z"/></g>
<g><path style="opacity:1" fill="#b9e3f6" d="M 832.5,485.5 C 834.5,485.5 836.5,485.5 838.5,485.5C 838.808,487.924 838.474,490.257 837.5,492.5C 836.833,490.833 836.167,489.167 835.5,487.5C 834.813,489.274 833.98,490.941 833,492.5C 832.503,490.19 832.337,487.857 832.5,485.5 Z"/></g>
<g><path style="opacity:1" fill="#bbe3f5" d="M 839.5,485.5 C 840.931,485.881 841.764,486.881 842,488.5C 842.689,487.643 843.522,486.977 844.5,486.5C 845.833,488.5 845.833,490.5 844.5,492.5C 843.749,491.624 843.249,490.624 843,489.5C 842.632,490.91 841.799,491.91 840.5,492.5C 839.526,490.257 839.192,487.924 839.5,485.5 Z"/></g>
<g><path style="opacity:0.029" fill="#e0fdff" d="M 202.5,499.5 C 199.875,500.466 199.875,501.466 202.5,502.5C 201.296,504.903 200.962,507.236 201.5,509.5C 200.975,510.192 200.308,510.692 199.5,511C 200.28,512.073 200.113,513.24 199,514.5C 198.626,513.584 198.126,512.75 197.5,512C 198.617,508.927 198.784,505.76 198,502.5C 198.038,507.875 196.704,512.875 194,517.5C 193.667,516.833 193.333,516.167 193,515.5C 192.252,517.332 191.252,518.999 190,520.5C 189.008,518.335 187.842,518.501 186.5,521C 186.759,522.261 187.426,523.261 188.5,524C 187.263,524.232 186.263,524.732 185.5,525.5C 184.506,516.014 184.173,506.348 184.5,496.5C 190.221,496.369 195.888,496.869 201.5,498C 202.056,498.383 202.389,498.883 202.5,499.5 Z"/></g>
<g><path style="opacity:0.081" fill="#d8e8fc" d="M 202.5,499.5 C 206.853,499.765 211.187,500.265 215.5,501C 228.533,504.626 241.533,508.126 254.5,511.5C 253.423,512.018 252.256,512.352 251,512.5C 239.953,509.28 228.787,506.447 217.5,504C 212.898,502.878 208.232,502.378 203.5,502.5C 203.388,511.046 203.221,519.379 203,527.5C 212.112,530.483 221.279,533.15 230.5,535.5C 230.5,536.5 230.5,537.5 230.5,538.5C 215.679,533.853 200.679,529.52 185.5,525.5C 186.263,524.732 187.263,524.232 188.5,524C 187.426,523.261 186.759,522.261 186.5,521C 187.842,518.501 189.008,518.335 190,520.5C 191.252,518.999 192.252,517.332 193,515.5C 193.333,516.167 193.667,516.833 194,517.5C 196.704,512.875 198.038,507.875 198,502.5C 198.784,505.76 198.617,508.927 197.5,512C 198.126,512.75 198.626,513.584 199,514.5C 200.113,513.24 200.28,512.073 199.5,511C 200.308,510.692 200.975,510.192 201.5,509.5C 200.962,507.236 201.296,504.903 202.5,502.5C 199.875,501.466 199.875,500.466 202.5,499.5 Z"/></g>
<g><path style="opacity:0.909" fill="#f7fbfd" d="M 254.5,511.5 C 254.5,511.833 254.5,512.167 254.5,512.5C 256.96,513.891 259.626,515.058 262.5,516C 341.561,536.079 420.561,556.412 499.5,577C 520.593,581.285 541.593,585.952 562.5,591C 600.002,597.789 637.669,604.123 675.5,610C 700.146,612.888 724.813,615.554 749.5,618C 755.157,618.499 760.824,618.666 766.5,618.5C 768.905,619.768 771.572,620.435 774.5,620.5C 774.5,628.833 774.5,637.167 774.5,645.5C 770.833,645.5 767.167,645.5 763.5,645.5C 753.487,645.59 743.487,645.257 733.5,644.5C 654.568,636.271 576.568,623.771 499.5,607C 449.85,593.216 400.184,580.05 350.5,567.5C 349.4,566.442 348.066,565.608 346.5,565C 337.127,562.929 327.793,560.763 318.5,558.5C 317.584,558.543 316.917,558.876 316.5,559.5C 307.597,557.8 298.931,555.467 290.5,552.5C 288.168,550.904 285.501,549.738 282.5,549C 272.812,546.763 263.145,544.597 253.5,542.5C 245.833,541.167 238.167,539.833 230.5,538.5C 230.5,537.5 230.5,536.5 230.5,535.5C 221.279,533.15 212.112,530.483 203,527.5C 203.221,519.379 203.388,511.046 203.5,502.5C 208.232,502.378 212.898,502.878 217.5,504C 228.787,506.447 239.953,509.28 251,512.5C 252.256,512.352 253.423,512.018 254.5,511.5 Z"/></g>
<g><path style="opacity:0.995" fill="#024489" d="M 689.5,406.5 C 690.94,422.958 691.607,439.458 691.5,456C 691.126,488.072 690.459,520.072 689.5,552C 636.616,546.979 583.616,542.479 530.5,538.5C 528.594,527.587 527.594,516.587 527.5,505.5C 580.462,510.288 633.462,514.621 686.5,518.5C 686.728,480.826 687.728,443.492 689.5,406.5 Z"/></g>
<g><path style="opacity:0.996" fill="#014489" d="M 1016.5,421.5 C 1017.97,431.784 1018.97,442.118 1019.5,452.5C 1016.8,492.501 1014.14,532.501 1011.5,572.5C 907.171,567.923 802.505,562.59 697.5,556.5C 696.124,545.868 695.124,535.201 694.5,524.5C 798.834,529.542 903.167,534.542 1007.5,539.5C 1010.24,501.19 1012.74,462.857 1015,424.5C 1015.23,423.263 1015.73,422.263 1016.5,421.5 Z"/></g>
<g><path style="opacity:1" fill="#0272b5" d="M 1020.5,539.5 C 1064.17,539.5 1107.83,539.5 1151.5,539.5C 1108.34,540.499 1065,540.832 1021.5,540.5C 1021.5,541.5 1021.5,542.5 1021.5,543.5C 1020.57,542.432 1020.23,541.099 1020.5,539.5 Z"/></g>
<g><path style="opacity:0.995" fill="#054689" d="M 1189.5,304.5 C 1190.99,311.276 1191.82,318.276 1192,325.5C 1191.96,400.169 1191.46,474.836 1190.5,549.5C 1178.83,549.5 1167.17,549.5 1155.5,549.5C 1154.98,557.213 1154.98,564.879 1155.5,572.5C 1112,573.499 1068.34,573.832 1024.5,573.5C 1023.66,563.48 1022.66,553.48 1021.5,543.5C 1021.5,542.5 1021.5,541.5 1021.5,540.5C 1065,540.832 1108.34,540.499 1151.5,539.5C 1152.49,532.352 1152.82,525.019 1152.5,517.5C 1163.83,517.5 1175.17,517.5 1186.5,517.5C 1187.46,446.463 1188.46,375.463 1189.5,304.5 Z"/></g>
<g><path style="opacity:0.102" fill="#a7dcf6" d="M 253.5,542.5 C 263.145,544.597 272.812,546.763 282.5,549C 285.501,549.738 288.168,550.904 290.5,552.5C 280.491,550.442 270.491,548.276 260.5,546C 257.808,545.257 255.475,544.09 253.5,542.5 Z"/></g>
<g><path style="opacity:0.235" fill="#3c79ab" d="M 1190.5,549.5 C 1179.35,550.495 1168.01,550.828 1156.5,550.5C 1156.82,558.019 1156.49,565.352 1155.5,572.5C 1154.98,564.879 1154.98,557.213 1155.5,549.5C 1167.17,549.5 1178.83,549.5 1190.5,549.5 Z"/></g>
<g><path style="opacity:0.157" fill="#b5dcfa" d="M 316.5,559.5 C 316.917,558.876 317.584,558.543 318.5,558.5C 327.793,560.763 337.127,562.929 346.5,565C 348.066,565.608 349.4,566.442 350.5,567.5C 338.923,565.719 327.589,563.052 316.5,559.5 Z"/></g>
<g><path style="opacity:1" fill="#265794" d="M 472.5,574.5 C 475.187,574.336 477.854,574.503 480.5,575C 480.957,575.414 481.291,575.914 481.5,576.5C 473.253,575.909 469.753,579.576 471,587.5C 472.699,588.406 474.533,588.739 476.5,588.5C 476.5,589.5 476.5,590.5 476.5,591.5C 468.725,592.558 465.558,589.225 467,581.5C 467.967,578.379 469.8,576.046 472.5,574.5 Z"/></g>
<g><path style="opacity:0.347" fill="#a8daf5" d="M 254.5,512.5 C 349.956,536.385 445.289,560.218 540.5,584C 564.461,588.243 588.461,592.743 612.5,597.5C 658.823,605.365 705.489,611.365 752.5,615.5C 762.153,616.245 771.82,616.579 781.5,616.5C 781.5,617.5 781.5,618.5 781.5,619.5C 776.482,619.387 771.482,619.053 766.5,618.5C 760.824,618.666 755.157,618.499 749.5,618C 724.813,615.554 700.146,612.888 675.5,610C 637.669,604.123 600.002,597.789 562.5,591C 541.593,585.952 520.593,581.285 499.5,577C 420.561,556.412 341.561,536.079 262.5,516C 259.626,515.058 256.96,513.891 254.5,512.5 Z"/></g>
<g><path style="opacity:0.845" fill="#064e96" d="M 777.5,580.5 C 781.167,580.5 784.833,580.5 788.5,580.5C 788.5,585.167 788.5,589.833 788.5,594.5C 787.5,594.5 786.5,594.5 785.5,594.5C 785.5,591.167 785.5,587.833 785.5,584.5C 783.833,584.5 782.167,584.5 780.5,584.5C 780.5,587.833 780.5,591.167 780.5,594.5C 779.5,594.5 778.5,594.5 777.5,594.5C 777.5,589.833 777.5,585.167 777.5,580.5 Z"/></g>
<g><path style="opacity:0.736" fill="#0c4c93" d="M 881.5,580.5 C 882.833,580.5 884.167,580.5 885.5,580.5C 885.5,584.167 885.5,587.833 885.5,591.5C 886.833,591.5 888.167,591.5 889.5,591.5C 889.335,588.15 889.502,584.817 890,581.5C 891.011,580.663 892.178,580.33 893.5,580.5C 893.532,586.189 893.866,591.855 894.5,597.5C 893.5,597.5 892.5,597.5 891.5,597.5C 891.5,596.5 891.5,595.5 891.5,594.5C 888.167,594.5 884.833,594.5 881.5,594.5C 881.5,589.833 881.5,585.167 881.5,580.5 Z"/></g>
<g><path style="opacity:0.933" fill="#15549b" d="M 898.5,580.5 C 901.833,580.5 905.167,580.5 908.5,580.5C 908.532,586.189 908.866,591.855 909.5,597.5C 908.167,597.5 906.833,597.5 905.5,597.5C 905.5,596.5 905.5,595.5 905.5,594.5C 903.5,594.5 901.5,594.5 899.5,594.5C 899.5,595.5 899.5,596.5 899.5,597.5C 898.167,597.5 896.833,597.5 895.5,597.5C 897.286,592.011 898.286,586.344 898.5,580.5 Z M 901.5,584.5 C 903.344,586.279 904.01,588.612 903.5,591.5C 902.448,591.649 901.448,591.483 900.5,591C 901.423,588.959 901.756,586.792 901.5,584.5 Z"/></g>
<g><path style="opacity:1" fill="#2a5895" d="M 481.5,581.5 C 482.552,581.351 483.552,581.517 484.5,582C 483.569,584.907 482.569,587.74 481.5,590.5C 485.377,589.473 487.377,586.806 487.5,582.5C 488.5,582.5 489.5,582.5 490.5,582.5C 489.207,586.086 488.207,589.752 487.5,593.5C 484.542,592.459 481.542,592.459 478.5,593.5C 478.03,589.095 479.03,585.095 481.5,581.5 Z"/></g>
<g><path style="opacity:0.849" fill="#16569b" d="M 870.5,580.5 C 873.833,580.5 877.167,580.5 880.5,580.5C 880.67,581.822 880.337,582.989 879.5,584C 877.744,584.202 876.078,584.702 874.5,585.5C 875.776,586.645 877.109,586.645 878.5,585.5C 879.5,585.833 880.167,586.5 880.5,587.5C 878.851,588.988 876.851,589.988 874.5,590.5C 876.396,591.466 878.396,591.799 880.5,591.5C 880.5,592.5 880.5,593.5 880.5,594.5C 877.167,594.5 873.833,594.5 870.5,594.5C 870.5,589.833 870.5,585.167 870.5,580.5 Z"/></g>
<g><path style="opacity:0.788" fill="#1d569a" d="M 791.5,584.5 C 794.448,584.223 797.281,584.556 800,585.5C 800.498,588.482 800.665,591.482 800.5,594.5C 797.223,594.784 794.057,594.451 791,593.5C 790.956,590.525 791.123,587.525 791.5,584.5 Z M 795.5,586.5 C 796.773,587.077 796.773,587.743 795.5,588.5C 794.537,588.03 794.537,587.363 795.5,586.5 Z M 794.5,590.5 C 796.337,590.639 796.67,591.306 795.5,592.5C 794.702,592.043 794.369,591.376 794.5,590.5 Z"/></g>
<g><path style="opacity:0.85" fill="#10529b" d="M 812.5,584.5 C 813.5,584.5 814.5,584.5 815.5,584.5C 815.443,588.133 816.443,588.3 818.5,585C 819.833,584.333 821.167,584.333 822.5,585C 818.886,587.823 818.886,590.823 822.5,594C 819.692,594.92 817.525,594.087 816,591.5C 815.517,592.448 815.351,593.448 815.5,594.5C 814.5,594.5 813.5,594.5 812.5,594.5C 812.5,591.167 812.5,587.833 812.5,584.5 Z"/></g>
<g><path style="opacity:0.846" fill="#0b5098" d="M 854.5,593.5 C 852.511,594.887 850.678,594.553 849,592.5C 847.951,594.107 846.451,594.773 844.5,594.5C 844.5,591.167 844.5,587.833 844.5,584.5C 846.451,584.227 847.951,584.893 849,586.5C 850.466,584.675 852.299,584.175 854.5,585C 851.914,587.874 851.914,590.707 854.5,593.5 Z"/></g>
<g><path style="opacity:0.921" fill="#145398" d="M 854.5,593.5 C 853.402,585.419 856.569,582.752 864,585.5C 864.498,588.482 864.665,591.482 864.5,594.5C 861.098,594.658 857.764,594.324 854.5,593.5 Z M 859.5,586.5 C 862.137,588.154 861.803,588.654 858.5,588C 859.056,587.617 859.389,587.117 859.5,586.5 Z M 858.5,590.5 C 861.797,590.329 862.131,590.995 859.5,592.5C 858.702,592.043 858.369,591.376 858.5,590.5 Z"/></g>
<g><path style="opacity:1" fill="#255694" d="M 493.5,583.5 C 494.978,583.238 496.311,583.571 497.5,584.5C 496.754,585.736 496.421,587.07 496.5,588.5C 498.833,587.167 501.167,585.833 503.5,584.5C 502.466,588.243 501.132,591.91 499.5,595.5C 498.5,596.833 497.5,596.833 496.5,595.5C 497.246,594.264 497.579,592.93 497.5,591.5C 494.728,592.411 492.061,593.244 489.5,594C 491.326,590.688 492.66,587.188 493.5,583.5 Z"/></g>
<g><path style="opacity:1" fill="#1f5292" d="M 507.5,586.5 C 514.565,585.961 516.398,588.961 513,595.5C 510.525,598.524 507.525,599.19 504,597.5C 502.662,592.96 503.829,589.293 507.5,586.5 Z"/></g>
<g><path style="opacity:1" fill="#dee5ee" d="M 509.5,588.5 C 510.649,588.791 511.316,589.624 511.5,591C 511.071,594.061 509.405,595.894 506.5,596.5C 506.018,593.169 507.018,590.503 509.5,588.5 Z"/></g>
<g><path style="opacity:1" fill="#2b5996" d="M 518.5,588.5 C 521.455,589.159 524.455,589.492 527.5,589.5C 526.512,593.485 525.512,597.485 524.5,601.5C 523.022,601.762 521.689,601.429 520.5,600.5C 522.757,597.718 523.423,594.718 522.5,591.5C 519.538,593.756 517.871,596.756 517.5,600.5C 516.5,600.5 515.5,600.5 514.5,600.5C 515.389,596.305 516.722,592.305 518.5,588.5 Z"/></g>
<g><path style="opacity:0.834" fill="#14559b" d="M 824.5,584.5 C 827.711,584.012 830.544,584.679 833,586.5C 836.149,584.638 839.649,583.971 843.5,584.5C 842.632,587.731 842.632,591.065 843.5,594.5C 839.649,595.029 836.149,594.362 833,592.5C 830.503,594.478 827.669,594.978 824.5,594C 821.914,590.839 821.914,587.672 824.5,584.5 Z M 837.5,590.5 C 840.797,590.329 841.131,590.995 838.5,592.5C 837.702,592.043 837.369,591.376 837.5,590.5 Z M 826.5,587.5 C 827.5,587.5 828.5,587.5 829.5,587.5C 829.5,588.833 829.5,590.167 829.5,591.5C 826.046,591.733 825.046,590.4 826.5,587.5 Z M 838.5,586.5 C 839.773,587.077 839.773,587.743 838.5,588.5C 837.537,588.03 837.537,587.363 838.5,586.5 Z"/></g>
<g><path style="opacity:1" fill="#255694" d="M 531.5,591.5 C 540.38,592.241 540.546,593.575 532,595.5C 531.505,597.473 531.338,599.473 531.5,601.5C 532.675,601.281 533.675,601.614 534.5,602.5C 530.891,604.319 528.558,603.319 527.5,599.5C 528.317,596.533 529.65,593.866 531.5,591.5 Z"/></g>
<g><path style="opacity:0.635" fill="#1a559a" d="M 801.5,584.5 C 804.833,584.5 808.167,584.5 811.5,584.5C 811.665,587.518 811.498,590.518 811,593.5C 809,594.833 807,594.833 805,593.5C 804.506,595.134 804.34,596.801 804.5,598.5C 803.5,598.5 802.5,598.5 801.5,598.5C 801.5,593.833 801.5,589.167 801.5,584.5 Z M 805.5,587.5 C 806.5,587.5 807.5,587.5 808.5,587.5C 808.5,588.833 808.5,590.167 808.5,591.5C 807.5,591.5 806.5,591.5 805.5,591.5C 805.5,590.167 805.5,588.833 805.5,587.5 Z"/></g>
<g><path style="opacity:1" fill="#2f5b97" d="M 540.5,593.5 C 541.675,593.281 542.675,593.614 543.5,594.5C 542.572,595.768 542.405,597.101 543,598.5C 544.167,597.333 545.333,596.167 546.5,595C 547.635,594.251 548.635,594.417 549.5,595.5C 547.903,596.791 546.57,598.291 545.5,600C 546.287,602.099 546.62,604.266 546.5,606.5C 545.178,606.67 544.011,606.337 543,605.5C 542.798,603.744 542.298,602.078 541.5,600.5C 540.571,601.689 540.238,603.022 540.5,604.5C 539.022,604.762 537.689,604.429 536.5,603.5C 538.4,600.371 539.733,597.037 540.5,593.5 Z"/></g>
<g><path style="opacity:1" fill="#295895" d="M 552.5,595.5 C 555.734,595.205 558.734,595.871 561.5,597.5C 559.301,600.889 557.968,604.556 557.5,608.5C 547.41,607.778 545.743,603.444 552.5,595.5 Z"/></g>
<g><path style="opacity:1" fill="#dde6ef" d="M 553.5,598.5 C 554.978,598.238 556.311,598.571 557.5,599.5C 556.667,601.167 555.833,602.833 555,604.5C 553.989,605.337 552.822,605.67 551.5,605.5C 551.394,602.921 552.061,600.588 553.5,598.5 Z"/></g>
<g><path style="opacity:1" fill="#235493" d="M 563.5,598.5 C 566.187,598.336 568.854,598.503 571.5,599C 571.957,599.414 572.291,599.914 572.5,600.5C 571.314,604.257 569.481,607.59 567,610.5C 566.5,610.167 566,609.833 565.5,609.5C 566.206,605.721 565.206,605.554 562.5,609C 558.809,609.051 558.642,607.884 562,605.5C 562.29,603.08 562.79,600.746 563.5,598.5 Z"/></g>
<g><path style="opacity:1" fill="#d8e2ec" d="M 565.5,601.5 C 566.5,601.5 567.5,601.5 568.5,601.5C 568.5,602.5 568.5,603.5 568.5,604.5C 567.5,604.5 566.5,604.5 565.5,604.5C 565.5,603.5 565.5,602.5 565.5,601.5 Z"/></g>
<g><path style="opacity:1" fill="#265795" d="M 581.5,601.5 C 582.5,601.5 583.5,601.5 584.5,601.5C 584.579,602.93 584.246,604.264 583.5,605.5C 584.689,606.429 586.022,606.762 587.5,606.5C 587.248,603.068 588.581,602.068 591.5,603.5C 589.796,606.715 588.296,610.049 587,613.5C 586.586,613.957 586.086,614.291 585.5,614.5C 584.548,612.955 584.215,611.288 584.5,609.5C 581.671,609.325 580.004,610.658 579.5,613.5C 578.5,613.167 577.833,612.5 577.5,611.5C 578.849,608.141 580.182,604.808 581.5,601.5 Z"/></g>
<g><path style="opacity:1" fill="#345f9a" d="M 594.5,604.5 C 597.187,604.336 599.854,604.503 602.5,605C 602.957,605.414 603.291,605.914 603.5,606.5C 601.829,609.842 600.162,613.176 598.5,616.5C 597.808,615.975 597.308,615.308 597,614.5C 591.28,617.792 589.28,616.126 591,609.5C 591.997,607.677 593.164,606.01 594.5,604.5 Z"/></g>
<g><path style="opacity:1" fill="#e9eef4" d="M 595.5,607.5 C 599.796,607.08 600.463,608.747 597.5,612.5C 596.675,613.386 595.675,613.719 594.5,613.5C 594.325,611.379 594.659,609.379 595.5,607.5 Z"/></g>
<g><path style="opacity:1" fill="#285895" d="M 609.5,602.5 C 620.012,603.684 620.012,605.017 609.5,606.5C 614.744,608.144 615.911,611.477 613,616.5C 610.294,619.978 607.294,620.311 604,617.5C 603.017,611.467 604.85,606.467 609.5,602.5 Z"/></g>
<g><path style="opacity:1" fill="#e9eff5" d="M 608.5,609.5 C 609.5,609.5 610.5,609.5 611.5,609.5C 612.467,613.851 610.8,616.185 606.5,616.5C 606.394,613.921 607.061,611.588 608.5,609.5 Z"/></g>
<g><path style="opacity:1" fill="#144d8e" d="M 614.5,617.5 C 615.5,617.5 616.5,617.5 617.5,617.5C 617.5,618.5 617.5,619.5 617.5,620.5C 616.5,620.5 615.5,620.5 614.5,620.5C 614.5,619.5 614.5,618.5 614.5,617.5 Z"/></g>
<g><path style="opacity:0.237" fill="#9fd5f4" d="M 783.5,617.5 C 812.498,619.865 841.498,622.198 870.5,624.5C 868.012,626.388 865.012,627.055 861.5,626.5C 838.733,623.5 815.733,621.666 792.5,621C 789.136,620.273 785.803,619.44 782.5,618.5C 782.624,617.893 782.957,617.56 783.5,617.5 Z"/></g>
<g><path style="opacity:0.781" fill="#e9f5fc" d="M 781.5,616.5 C 782.492,616.328 783.158,616.662 783.5,617.5C 782.957,617.56 782.624,617.893 782.5,618.5C 785.803,619.44 789.136,620.273 792.5,621C 815.733,621.666 838.733,623.5 861.5,626.5C 860.172,635.883 859.672,644.883 860,653.5C 857.599,652.398 855.099,652.231 852.5,653C 853.056,653.383 853.389,653.883 853.5,654.5C 852.244,654.539 851.244,654.039 850.5,653C 823.892,650.568 797.225,649.234 770.5,649C 767.808,648.257 765.475,647.09 763.5,645.5C 767.167,645.5 770.833,645.5 774.5,645.5C 774.5,637.167 774.5,628.833 774.5,620.5C 771.572,620.435 768.905,619.768 766.5,618.5C 771.482,619.053 776.482,619.387 781.5,619.5C 781.5,618.5 781.5,617.5 781.5,616.5 Z"/></g>
<g><path style="opacity:0.273" fill="#dcf1fc" d="M 870.5,624.5 C 883.455,625.399 896.455,626.399 909.5,627.5C 906.661,637.456 906.328,647.122 908.5,656.5C 911.188,656.166 913.521,656.832 915.5,658.5C 915.5,658.833 915.5,659.167 915.5,659.5C 914.833,659.5 914.167,659.5 913.5,659.5C 912.5,658.167 911.5,658.167 910.5,659.5C 906.833,659.5 903.167,659.5 899.5,659.5C 897.91,657.766 895.91,656.6 893.5,656C 880.175,655.231 866.841,654.731 853.5,654.5C 853.389,653.883 853.056,653.383 852.5,653C 855.099,652.231 857.599,652.398 860,653.5C 859.672,644.883 860.172,635.883 861.5,626.5C 865.012,627.055 868.012,626.388 870.5,624.5 Z"/></g>
<g><path style="opacity:0.006" fill="#fdfffe" d="M 909.5,627.5 C 913.482,628.663 917.482,629.829 921.5,631C 917.764,638.156 916.931,645.656 919,653.5C 919.574,655.492 920.741,656.992 922.5,658C 920.19,658.497 917.857,658.663 915.5,658.5C 913.521,656.832 911.188,656.166 908.5,656.5C 906.328,647.122 906.661,637.456 909.5,627.5 Z"/></g>
</svg>
