<svg width="2225" height="1101" viewBox="0 0 2225 1101" fill="none" xmlns="http://www.w3.org/2000/svg">
<path d="M860.885 622.61L868.095 685.762L865.991 882.971L858.781 819.819L860.885 622.61Z" fill="#004388"/>
<path d="M858.782 819.819L865.992 882.971L865.17 959.905L857.961 896.753L858.782 819.819Z" fill="#004388"/>
<path d="M857.965 896.752L865.174 959.904L864.834 991.784L857.625 928.632L857.965 896.752Z" fill="#004388"/>
<path d="M156.366 397.692L163.576 460.844L161.78 629.146L154.57 565.994L156.366 397.692Z" fill="#004388"/>
<path d="M154.573 565.994L161.783 629.146H7.208L0 565.994H154.573Z" fill="#004388"/>
<path d="M156.369 397.692L154.573 565.994H0L1.796 397.692H156.369Z" fill="#009FE3"/>
<path d="M1339.76 770.075L1346.97 833.227L1342.37 901.554L1335.16 838.402L1339.76 770.075Z" fill="#004388"/>
<path d="M1622.41 833.318L1629.62 896.47L1628.28 916.415L1621.07 853.263L1622.41 833.318Z" fill="#004388"/>
<path d="M1879.67 798.133L1886.88 861.285L1882.28 929.612L1875.07 866.46L1879.67 798.133Z" fill="#004388"/>
<path d="M1875.07 866.459L1882.28 929.611L1880.36 958.049L1873.15 894.897L1875.07 866.459Z" fill="#004388"/>
<path d="M1873.15 894.896L1880.36 958.048L1870.75 1100.65L1863.55 1037.49L1873.15 894.896Z" fill="#004388"/>
<path d="M1863.54 1037.49L1870.75 1100.64L1261.69 1069L1254.48 1005.84L1863.54 1037.49Z" fill="#004388"/>
<path d="M1270.61 766.483L1339.76 770.075L1335.16 838.401L1520.01 848.006L1521.35 828.062L1622.41 833.318L1621.07 853.262L1805.92 862.867L1810.52 794.541L1879.67 798.133L1875.07 866.459L1873.15 894.895L1863.54 1037.49L1254.48 1005.84L1264.09 863.246L1266.01 834.81L1270.61 766.483Z" fill="#009FE3"/>
<path d="M301.435 579.681L308.644 642.833L308.38 667.483L301.172 604.331L301.435 579.681Z" fill="#004388"/>
<path d="M549.028 604.331L556.237 667.483L556.092 681.082L548.883 617.93L549.028 604.331Z" fill="#004388"/>
<path d="M217.519 701.232L224.728 764.384H180.319L173.109 701.232H217.519Z" fill="#004388"/>
<path d="M300.141 701.232L307.35 764.384H224.731L217.523 701.232H300.141Z" fill="#004388"/>
<path d="M372.541 701.232L379.75 764.384H307.35L300.141 701.232H372.541Z" fill="#004388"/>
<path d="M692.191 757.336L699.4 820.488H379.147L371.938 757.336H692.191Z" fill="#004388"/>
<path d="M693.683 617.93L700.893 681.082L699.405 820.488L692.195 757.336L693.683 617.93Z" fill="#004388"/>
<path d="M301.433 579.681L301.171 604.331H549.023L548.879 617.929H693.677L692.191 757.336H371.937L372.536 701.232H300.136H217.519H173.109L174.407 579.681H301.433Z" fill="#009FE3"/>
<path d="M1221.19 624.125L1228.4 687.277L1227.95 728.934L1220.74 665.781L1221.19 624.125Z" fill="#004388"/>
<path d="M1220.74 665.781L1227.95 728.933L1227.9 734.029L1220.69 670.876L1220.74 665.781Z" fill="#004388"/>
<path d="M1220.69 670.877L1227.9 734.029L1227.8 743.382L1220.59 680.229L1220.69 670.877Z" fill="#004388"/>
<path d="M930.632 755.039L937.841 818.191H886.764L879.555 755.039H930.632Z" fill="#004388"/>
<path d="M1220.59 680.229L1227.8 743.381L1227 818.192L1219.79 755.039L1220.59 680.229Z" fill="#004388"/>
<path d="M1219.79 755.039L1227 818.191L1226.9 826.683L1219.7 763.531L1219.79 755.039Z" fill="#004388"/>
<path d="M1238.54 996.453L1245.75 1059.6L935.553 1032.82L928.344 969.669L1238.54 996.453Z" fill="#004388"/>
<path d="M1241.02 763.531L1248.23 826.683L1245.74 1059.6L1238.53 996.452L1241.02 763.531Z" fill="#004388"/>
<path d="M1221.18 624.125L1220.74 665.781L1220.69 670.877L1220.59 680.229L1219.79 755.039L1219.7 763.531H1241.02L1238.53 996.453L928.341 969.669L930.632 755.039H879.555L880.353 680.229L880.507 665.781L880.952 624.125H1221.18Z" fill="#009FE3"/>
<path d="M756.698 896.752L763.907 959.904H732.366L725.156 896.752H756.698Z" fill="#004388"/>
<path d="M857.618 928.631L864.828 991.783H763.561L756.352 928.631H857.618Z" fill="#004388"/>
<path d="M860.888 622.61L858.784 819.819L857.963 896.751L857.623 928.631H756.356L756.698 896.751H725.156L728.082 622.61H860.888Z" fill="#009FE3"/>
<path d="M2152.12 434.299L2159.33 497.451L2157.91 630.271L2150.7 567.118L2152.12 434.299Z" fill="#004388"/>
<path d="M2084.2 577.102L2091.41 640.254H1867.31L1860.1 577.102H2084.2Z" fill="#004388"/>
<path d="M2081.47 832.975L2088.68 896.127H1954.31L1947.1 832.975H2081.47Z" fill="#004388"/>
<path d="M2212.56 993.209L2219.77 1056.36H2153.37L2146.16 993.209H2212.56Z" fill="#004388"/>
<path d="M2217.11 567.118L2224.32 630.27L2219.77 1056.36L2212.56 993.209L2217.11 567.118Z" fill="#004388"/>
<path d="M2145.68 1037.83L2152.89 1100.98H1898.26L1891.05 1037.83H2145.68Z" fill="#004388"/>
<path d="M2146.16 993.209L2153.37 1056.36L2152.89 1100.98L2145.68 1037.83L2146.16 993.209Z" fill="#004388"/>
<path d="M2152.12 434L2150.71 566.819H2217.11L2212.56 992.911H2146.16L2145.68 1037.53H1891.06L1892.58 894.724H2080.8L2081.47 832.676H1947.1L1947.84 762.972H2082.21L2084.2 576.803H1860.1L1861.63 434H2152.12Z" fill="#009FE3"/>
<path d="M728.574 536.87L735.783 600.022H320.584L313.375 536.87H728.574Z" fill="#004388"/>
<path d="M803.186 536.87L810.395 600.022L810.192 618.934L802.984 555.782L803.186 536.87Z" fill="#004388"/>
<path d="M802.986 555.782L810.195 618.934H735.577L728.367 555.782H802.986Z" fill="#004388"/>
<path d="M1218.37 536.87L1225.58 600.022H810.397L803.188 536.87H1218.37Z" fill="#004388"/>
<path d="M1219.86 397.464L1227.07 460.616L1225.58 600.022L1218.38 536.87L1219.86 397.464Z" fill="#004388"/>
<path d="M1219.87 397.464L1218.38 536.87H803.192L802.991 555.782H728.372L728.574 536.87H313.375L314.863 397.464H1219.87Z" fill="#009FE3"/>
<path d="M906.274 157.859L916.537 217.812L915.661 272.563L905.398 212.609L906.274 157.859Z" fill="#004388"/>
<path d="M905.4 212.609L915.663 272.562L915.544 279.988L905.281 220.034L905.4 212.609Z" fill="#004388"/>
<path d="M905.278 220.034L915.541 279.987L914.895 320.336L904.633 260.382L905.278 220.034Z" fill="#004388"/>
<path d="M904.637 260.382L914.9 320.336H443.778L433.516 260.382H904.637Z" fill="#004388"/>
<path d="M906.277 157.859L905.401 212.609L905.282 220.033L904.637 260.383H433.516L434.28 212.609H468.828L469.704 157.859H906.277Z" fill="#009FE3"/>
<path d="M420.536 0.589871L430.799 60.5432L429.817 121.87L419.555 61.9152L420.536 0.589871Z" fill="#004388"/>
<path d="M419.557 61.9157L429.82 121.869H380.952L370.688 61.9157H419.557Z" fill="#004388"/>
<path d="M370.684 61.9157L380.946 121.869L378.561 271.006L368.297 211.053L370.684 61.9157Z" fill="#004388"/>
<path d="M277.141 272.379L287.403 332.333H197.239L186.977 272.379H277.141Z" fill="#004388"/>
<path d="M367.317 272.379L377.579 332.333H287.403L277.141 272.379H367.317Z" fill="#004388"/>
<path d="M390.484 272.379L400.747 332.333H377.583L367.32 272.379H390.484Z" fill="#004388"/>
<path d="M391.466 211.053L401.728 271.007L400.747 332.333L390.484 272.379L391.466 211.053Z" fill="#004388"/>
<path d="M420.535 0.589693L419.554 61.915H370.685L368.299 211.054H391.463L390.482 272.379H367.318H277.141H186.977L190.535 50.015H306.405L307.195 0.589693H420.535Z" fill="#009FE3"/>
<path d="M1403.13 397.692L1410.34 460.844L1416.01 588.597L1394.68 586.374L1403.13 397.692Z" fill="#004388"/>
<path d="M1390.23 565.994L1397.44 629.146H1289.95L1282.74 565.994H1390.23Z" fill="#004388"/>
<path d="M1401.33 565.994L1408.54 629.146H1397.44L1390.23 565.994H1401.33Z" fill="#004388"/>
<path d="M1402.86 423.19L1402.92 417.477V417.474L1403.13 397.692H1284.54L1282.74 565.993H1390.23H1401.34H1402.92V423.19H1402.86Z" fill="#009FE3"/>
<path d="M186.977 427.222L195.535 468.408H308.642V437L301.17 397.464L186.977 427.222Z" fill="#004388"/>
<path d="M301.17 427.223H186.977V397.464H301.17V427.223Z" fill="#009FE3"/>
<path d="M544.552 808.158L556.008 870.923L549.308 894.175L537.852 831.41L544.552 808.158Z" fill="#004388"/>
<path d="M677.679 821.254L642.572 943.108L485.245 903.138L272.516 849.099L215.555 834.626L227.011 897.391L283.972 911.866L496.7 965.903L654.028 1005.87L689.135 884.019L677.679 821.254Z" fill="#004388"/>
<path d="M537.855 831.409L677.679 821.253L642.572 943.109L485.244 903.137L272.516 849.099L215.555 834.625L230.321 783.355L279.021 795.727L293.803 744.455L544.555 808.157L537.855 831.409Z" fill="#009FE3"/>
<path d="M1674.06 565.994L1681.27 629.146H1408.54L1401.34 565.994H1674.06Z" fill="#004388"/>
<path d="M1675.59 423.191L1682.8 486.343L1681.27 629.147L1674.06 565.993L1675.59 423.191Z" fill="#004388"/>
<path d="M1675.58 423.19H1410.34V565.993H1674.06L1675.58 423.19Z" fill="#009FE3"/>
</svg>
